<?xml version="1.0" encoding="utf-8"?>
<!-- Generator: Adobe Illustrator 27.5.0, SVG Export Plug-In . SVG Version: 6.00 Build 0)  -->
<svg version="1.1" xmlns="http://www.w3.org/2000/svg" xmlns:xlink="http://www.w3.org/1999/xlink" x="0px" y="0px"
	 viewBox="0 0 750 500" style="enable-background:new 0 0 750 500;" xml:space="preserve">
<g id="Background_Complete">
	<g>
		<g>
			<g>
				<g>
					<path style="fill:#E0E0E0;" d="M123.209,252.352c0-6.493,3.35-10.525,8.123-10.525c4.773,0,8.124,4.032,8.124,10.525
						c0,6.493-3.351,10.525-8.124,10.525C126.559,262.878,123.209,258.845,123.209,252.352z M137.943,252.352
						c0-5.782-2.697-9.131-6.611-9.131c-3.913,0-6.611,3.35-6.611,9.131c0,5.781,2.698,9.132,6.611,9.132
						C135.246,261.484,137.943,258.133,137.943,252.352z"/>
				</g>
				<g>
					<path style="fill:#E0E0E0;" d="M181.932,241.975v20.754h-1.512v-19.39h-5.07v-1.364H181.932z"/>
				</g>
				<g>
					<path style="fill:#EBEBEB;" d="M221.178,252.352c0-6.493,3.35-10.525,8.123-10.525c4.773,0,8.124,4.032,8.124,10.525
						c0,6.493-3.351,10.525-8.124,10.525C224.528,262.878,221.178,258.845,221.178,252.352z M235.913,252.352
						c0-5.782-2.697-9.131-6.611-9.131c-3.913,0-6.611,3.35-6.611,9.131c0,5.781,2.698,9.132,6.611,9.132
						C233.215,261.484,235.913,258.133,235.913,252.352z"/>
				</g>
				<g>
					<path style="fill:#E0E0E0;" d="M270.165,252.352c0-6.493,3.35-10.525,8.123-10.525c4.773,0,8.124,4.032,8.124,10.525
						c0,6.493-3.351,10.525-8.124,10.525C273.514,262.878,270.165,258.845,270.165,252.352z M284.899,252.352
						c0-5.782-2.697-9.131-6.611-9.131c-3.913,0-6.611,3.35-6.611,9.131c0,5.781,2.698,9.132,6.611,9.132
						C282.202,261.484,284.899,258.133,284.899,252.352z"/>
				</g>
				<g>
					<path style="fill:#E0E0E0;" d="M327.865,241.975v20.754h-1.512v-19.39h-5.07v-1.364H327.865z"/>
				</g>
				<g>
					<path style="fill:#EBEBEB;" d="M368.134,252.352c0-6.493,3.35-10.525,8.123-10.525c4.773,0,8.124,4.032,8.124,10.525
						c0,6.493-3.352,10.525-8.124,10.525C371.483,262.878,368.134,258.845,368.134,252.352z M382.868,252.352
						c0-5.782-2.697-9.131-6.611-9.131c-3.913,0-6.611,3.35-6.611,9.131c0,5.781,2.698,9.132,6.611,9.132
						C380.17,261.484,382.868,258.133,382.868,252.352z"/>
				</g>
				<g>
					<path style="fill:#E0E0E0;" d="M417.12,252.352c0-6.493,3.35-10.525,8.123-10.525c4.773,0,8.123,4.032,8.123,10.525
						c0,6.493-3.35,10.525-8.123,10.525C420.469,262.878,417.12,258.845,417.12,252.352z M431.854,252.352
						c0-5.782-2.697-9.131-6.611-9.131c-3.914,0-6.611,3.35-6.611,9.131c0,5.781,2.697,9.132,6.611,9.132
						C429.157,261.484,431.854,258.133,431.854,252.352z"/>
				</g>
				<g>
					<path style="fill:#E0E0E0;" d="M123.209,156.694c0-6.492,3.35-10.524,8.123-10.524c4.773,0,8.124,4.032,8.124,10.524
						c0,6.493-3.351,10.525-8.124,10.525C126.559,167.22,123.209,163.188,123.209,156.694z M137.943,156.694
						c0-5.781-2.697-9.131-6.611-9.131c-3.913,0-6.611,3.35-6.611,9.131c0,5.781,2.698,9.132,6.611,9.132
						C135.246,165.826,137.943,162.476,137.943,156.694z"/>
				</g>
				<g>
					<path style="fill:#E0E0E0;" d="M181.932,146.317v20.754h-1.512v-19.39h-5.07v-1.364H181.932z"/>
				</g>
				<g>
					<path style="fill:#EBEBEB;" d="M221.179,156.694c0-6.492,3.35-10.524,8.123-10.524c4.773,0,8.124,4.032,8.124,10.524
						c0,6.493-3.351,10.525-8.124,10.525C224.528,167.22,221.179,163.188,221.179,156.694z M235.913,156.694
						c0-5.781-2.697-9.131-6.611-9.131c-3.913,0-6.611,3.35-6.611,9.131c0,5.781,2.698,9.132,6.611,9.132
						C233.216,165.826,235.913,162.476,235.913,156.694z"/>
				</g>
				<g>
					<path style="fill:#E0E0E0;" d="M270.165,156.694c0-6.492,3.35-10.524,8.123-10.524c4.773,0,8.124,4.032,8.124,10.524
						c0,6.493-3.351,10.525-8.124,10.525C273.514,167.22,270.165,163.188,270.165,156.694z M284.899,156.694
						c0-5.781-2.697-9.131-6.611-9.131c-3.913,0-6.611,3.35-6.611,9.131c0,5.781,2.698,9.132,6.611,9.132
						C282.202,165.826,284.899,162.476,284.899,156.694z"/>
				</g>
				<g>
					<path style="fill:#E0E0E0;" d="M327.865,146.317v20.754h-1.512v-19.39h-5.07v-1.364H327.865z"/>
				</g>
				<g>
					<path style="fill:#EBEBEB;" d="M368.135,156.694c0-6.492,3.35-10.524,8.123-10.524c4.774,0,8.124,4.032,8.124,10.524
						c0,6.493-3.35,10.525-8.124,10.525C371.484,167.22,368.135,163.188,368.135,156.694z M382.87,156.694
						c0-5.781-2.697-9.131-6.612-9.131c-3.913,0-6.611,3.35-6.611,9.131c0,5.781,2.698,9.132,6.611,9.132
						C380.172,165.826,382.87,162.476,382.87,156.694z"/>
				</g>
				<g>
					<path style="fill:#E0E0E0;" d="M417.12,156.694c0-6.492,3.35-10.524,8.123-10.524c4.773,0,8.123,4.032,8.123,10.524
						c0,6.493-3.35,10.525-8.123,10.525C420.469,167.22,417.12,163.188,417.12,156.694z M431.854,156.694
						c0-5.781-2.697-9.131-6.611-9.131c-3.914,0-6.611,3.35-6.611,9.131c0,5.781,2.697,9.132,6.611,9.132
						C429.157,165.826,431.854,162.476,431.854,156.694z"/>
				</g>
				<g>
					<path style="fill:#E0E0E0;" d="M123.209,203.247c0-6.492,3.35-10.524,8.123-10.524c4.773,0,8.124,4.032,8.124,10.524
						c0,6.493-3.351,10.525-8.124,10.525C126.559,213.773,123.209,209.74,123.209,203.247z M137.943,203.247
						c0-5.781-2.697-9.131-6.611-9.131c-3.913,0-6.611,3.35-6.611,9.131c0,5.781,2.698,9.132,6.611,9.132
						C135.246,212.379,137.943,209.028,137.943,203.247z"/>
				</g>
				<g>
					<path style="fill:#EBEBEB;" d="M172.194,203.247c0-6.492,3.35-10.524,8.123-10.524c4.773,0,8.124,4.032,8.124,10.524
						c0,6.493-3.35,10.525-8.124,10.525C175.544,213.773,172.194,209.74,172.194,203.247z M186.929,203.247
						c0-5.781-2.697-9.131-6.611-9.131c-3.913,0-6.611,3.35-6.611,9.131c0,5.781,2.698,9.132,6.611,9.132
						C184.231,212.379,186.929,209.028,186.929,203.247z"/>
				</g>
				<g>
					<path style="fill:#E0E0E0;" d="M221.179,203.247c0-6.492,3.35-10.524,8.123-10.524c4.773,0,8.124,4.032,8.124,10.524
						c0,6.493-3.351,10.525-8.124,10.525C224.529,213.773,221.179,209.74,221.179,203.247z M235.914,203.247
						c0-5.781-2.697-9.131-6.611-9.131c-3.913,0-6.611,3.35-6.611,9.131c0,5.781,2.698,9.132,6.611,9.132
						C233.216,212.379,235.914,209.028,235.914,203.247z"/>
				</g>
				<g>
					<path style="fill:#E0E0E0;" d="M279.902,192.87v20.754h-1.512v-19.39h-5.07v-1.364H279.902z"/>
				</g>
				<g>
					<path style="fill:#EBEBEB;" d="M318.127,204.523c0-6.492,3.35-10.524,8.123-10.524c4.773,0,8.124,4.032,8.124,10.524
						c0,6.493-3.351,10.525-8.124,10.525C321.477,215.048,318.127,211.016,318.127,204.523z M332.861,204.523
						c0-5.781-2.697-9.131-6.611-9.131c-3.913,0-6.611,3.35-6.611,9.131c0,5.781,2.698,9.132,6.611,9.132
						C330.164,213.655,332.861,210.304,332.861,204.523z"/>
				</g>
				<g>
					<path style="fill:#E0E0E0;" d="M368.134,203.247c0-6.492,3.35-10.524,8.123-10.524c4.773,0,8.124,4.032,8.124,10.524
						c0,6.493-3.351,10.525-8.124,10.525C371.484,213.773,368.134,209.74,368.134,203.247z M382.869,203.247
						c0-5.781-2.697-9.131-6.611-9.131c-3.913,0-6.611,3.35-6.611,9.131c0,5.781,2.698,9.132,6.611,9.132
						C380.171,212.379,382.869,209.028,382.869,203.247z"/>
				</g>
				<g>
					<path style="fill:#E0E0E0;" d="M426.857,192.87v20.754h-1.512v-19.39h-5.07v-1.364H426.857z"/>
				</g>
			</g>
			<g>
				<g>
					<path style="fill:#E0E0E0;" d="M123.209,65.348c0-6.492,3.35-10.524,8.123-10.524c4.773,0,8.124,4.032,8.124,10.524
						c0,6.493-3.351,10.525-8.124,10.525C126.559,75.874,123.209,71.841,123.209,65.348z M137.943,65.348
						c0-5.781-2.697-9.131-6.611-9.131c-3.913,0-6.611,3.35-6.611,9.131c0,5.781,2.698,9.132,6.611,9.132
						C135.246,74.48,137.943,71.129,137.943,65.348z"/>
				</g>
				<g>
					<path style="fill:#E0E0E0;" d="M181.932,54.971v20.754h-1.512v-19.39h-5.07v-1.364H181.932z"/>
				</g>
				<g>
					<path style="fill:#EBEBEB;" d="M221.179,65.348c0-6.492,3.35-10.524,8.123-10.524c4.773,0,8.124,4.032,8.124,10.524
						c0,6.493-3.351,10.525-8.124,10.525C224.528,75.874,221.179,71.841,221.179,65.348z M235.913,65.348
						c0-5.781-2.697-9.131-6.611-9.131c-3.913,0-6.611,3.35-6.611,9.131c0,5.781,2.698,9.132,6.611,9.132
						C233.216,74.48,235.913,71.129,235.913,65.348z"/>
				</g>
				<g>
					<path style="fill:#E0E0E0;" d="M270.165,65.348c0-6.492,3.35-10.524,8.123-10.524c4.773,0,8.124,4.032,8.124,10.524
						c0,6.493-3.351,10.525-8.124,10.525C273.514,75.874,270.165,71.841,270.165,65.348z M284.899,65.348
						c0-5.781-2.697-9.131-6.611-9.131c-3.913,0-6.611,3.35-6.611,9.131c0,5.781,2.698,9.132,6.611,9.132
						C282.202,74.48,284.899,71.129,284.899,65.348z"/>
				</g>
				<g>
					<path style="fill:#E0E0E0;" d="M327.865,54.971v20.754h-1.512v-19.39h-5.07v-1.364H327.865z"/>
				</g>
				<g>
					<path style="fill:#EBEBEB;" d="M368.135,65.348c0-6.492,3.35-10.524,8.123-10.524c4.774,0,8.124,4.032,8.124,10.524
						c0,6.493-3.35,10.525-8.124,10.525C371.484,75.874,368.135,71.841,368.135,65.348z M382.87,65.348
						c0-5.781-2.697-9.131-6.612-9.131c-3.913,0-6.611,3.35-6.611,9.131c0,5.781,2.698,9.132,6.611,9.132
						C380.172,74.48,382.87,71.129,382.87,65.348z"/>
				</g>
				<g>
					<path style="fill:#E0E0E0;" d="M417.12,65.348c0-6.492,3.35-10.524,8.123-10.524c4.773,0,8.123,4.032,8.123,10.524
						c0,6.493-3.35,10.525-8.123,10.525C420.469,75.874,417.12,71.841,417.12,65.348z M431.854,65.348
						c0-5.781-2.697-9.131-6.611-9.131c-3.914,0-6.611,3.35-6.611,9.131c0,5.781,2.697,9.132,6.611,9.132
						C429.157,74.48,431.854,71.129,431.854,65.348z"/>
				</g>
				<g>
					<path style="fill:#E0E0E0;" d="M123.209,111.9c0-6.492,3.35-10.524,8.123-10.524c4.773,0,8.124,4.032,8.124,10.524
						c0,6.493-3.351,10.525-8.124,10.525C126.559,122.426,123.209,118.394,123.209,111.9z M137.943,111.9
						c0-5.781-2.697-9.131-6.611-9.131c-3.913,0-6.611,3.35-6.611,9.131c0,5.781,2.698,9.132,6.611,9.132
						C135.246,121.032,137.943,117.682,137.943,111.9z"/>
				</g>
				<g>
					<path style="fill:#EBEBEB;" d="M172.194,111.9c0-6.492,3.35-10.524,8.123-10.524c4.773,0,8.124,4.032,8.124,10.524
						c0,6.493-3.35,10.525-8.124,10.525C175.544,122.426,172.194,118.394,172.194,111.9z M186.929,111.9
						c0-5.781-2.697-9.131-6.611-9.131c-3.913,0-6.611,3.35-6.611,9.131c0,5.781,2.698,9.132,6.611,9.132
						C184.231,121.032,186.929,117.682,186.929,111.9z"/>
				</g>
				<g>
					<path style="fill:#E0E0E0;" d="M221.179,111.9c0-6.492,3.35-10.524,8.123-10.524c4.773,0,8.124,4.032,8.124,10.524
						c0,6.493-3.351,10.525-8.124,10.525C224.529,122.426,221.179,118.394,221.179,111.9z M235.914,111.9
						c0-5.781-2.697-9.131-6.611-9.131c-3.913,0-6.611,3.35-6.611,9.131c0,5.781,2.698,9.132,6.611,9.132
						C233.216,121.032,235.914,117.682,235.914,111.9z"/>
				</g>
				<g>
					<path style="fill:#E0E0E0;" d="M279.902,101.523v20.754h-1.512v-19.39h-5.07v-1.364H279.902z"/>
				</g>
				<g>
					<path style="fill:#EBEBEB;" d="M318.127,113.176c0-6.492,3.35-10.524,8.123-10.524c4.773,0,8.124,4.032,8.124,10.524
						c0,6.493-3.351,10.525-8.124,10.525C321.477,123.702,318.127,119.67,318.127,113.176z M332.861,113.176
						c0-5.781-2.697-9.131-6.611-9.131c-3.913,0-6.611,3.35-6.611,9.131c0,5.781,2.698,9.132,6.611,9.132
						C330.164,122.308,332.861,118.957,332.861,113.176z"/>
				</g>
				<g>
					<path style="fill:#E0E0E0;" d="M368.134,111.9c0-6.492,3.35-10.524,8.123-10.524c4.773,0,8.124,4.032,8.124,10.524
						c0,6.493-3.351,10.525-8.124,10.525C371.484,122.426,368.134,118.394,368.134,111.9z M382.869,111.9
						c0-5.781-2.697-9.131-6.611-9.131c-3.913,0-6.611,3.35-6.611,9.131c0,5.781,2.698,9.132,6.611,9.132
						C380.171,121.032,382.869,117.682,382.869,111.9z"/>
				</g>
				<g>
					<path style="fill:#E0E0E0;" d="M426.857,101.523v20.754h-1.512v-19.39h-5.07v-1.364H426.857z"/>
				</g>
			</g>
		</g>
		<g>
			<g>
				<g>
					<path style="fill:#EBEBEB;" d="M466.479,252.352c0-6.493,3.35-10.525,8.123-10.525c4.773,0,8.125,4.032,8.125,10.525
						c0,6.493-3.352,10.525-8.125,10.525C469.829,262.878,466.479,258.845,466.479,252.352z M481.213,252.352
						c0-5.782-2.697-9.131-6.611-9.131c-3.912,0-6.611,3.35-6.611,9.131c0,5.781,2.699,9.132,6.611,9.132
						C478.516,261.484,481.213,258.133,481.213,252.352z"/>
				</g>
				<g>
					<path style="fill:#E0E0E0;" d="M515.465,252.352c0-6.493,3.35-10.525,8.123-10.525c4.773,0,8.125,4.032,8.125,10.525
						c0,6.493-3.352,10.525-8.125,10.525C518.815,262.878,515.465,258.845,515.465,252.352z M530.2,252.352
						c0-5.782-2.697-9.131-6.611-9.131c-3.912,0-6.611,3.35-6.611,9.131c0,5.781,2.699,9.132,6.611,9.132
						C527.503,261.484,530.2,258.133,530.2,252.352z"/>
				</g>
				<g>
					<path style="fill:#E0E0E0;" d="M573.167,241.975v20.754h-1.512v-19.39h-5.07v-1.364H573.167z"/>
				</g>
				<g>
					<path style="fill:#EBEBEB;" d="M613.435,252.352c0-6.493,3.35-10.525,8.123-10.525c4.773,0,8.124,4.032,8.124,10.525
						c0,6.493-3.351,10.525-8.124,10.525C616.785,262.878,613.435,258.845,613.435,252.352z M628.169,252.352
						c0-5.782-2.697-9.131-6.611-9.131c-3.913,0-6.611,3.35-6.611,9.131c0,5.781,2.698,9.132,6.611,9.132
						C625.472,261.484,628.169,258.133,628.169,252.352z"/>
				</g>
				<g>
					<path style="fill:#EBEBEB;" d="M466.48,156.694c0-6.492,3.35-10.524,8.123-10.524c4.773,0,8.124,4.032,8.124,10.524
						c0,6.493-3.351,10.525-8.124,10.525C469.83,167.22,466.48,163.188,466.48,156.694z M481.214,156.694
						c0-5.781-2.697-9.131-6.611-9.131c-3.913,0-6.611,3.35-6.611,9.131c0,5.781,2.698,9.132,6.611,9.132
						C478.517,165.826,481.214,162.476,481.214,156.694z"/>
				</g>
				<g>
					<path style="fill:#E0E0E0;" d="M515.465,156.694c0-6.492,3.35-10.524,8.123-10.524c4.773,0,8.125,4.032,8.125,10.524
						c0,6.493-3.352,10.525-8.125,10.525C518.815,167.22,515.465,163.188,515.465,156.694z M530.2,156.694
						c0-5.781-2.697-9.131-6.611-9.131c-3.912,0-6.611,3.35-6.611,9.131c0,5.781,2.699,9.132,6.611,9.132
						C527.503,165.826,530.2,162.476,530.2,156.694z"/>
				</g>
				<g>
					<path style="fill:#E0E0E0;" d="M573.167,146.317v20.754h-1.512v-19.39h-5.07v-1.364H573.167z"/>
				</g>
				<g>
					<path style="fill:#EBEBEB;" d="M613.436,156.694c0-6.492,3.35-10.524,8.123-10.524c4.773,0,8.124,4.032,8.124,10.524
						c0,6.493-3.351,10.525-8.124,10.525C616.786,167.22,613.436,163.188,613.436,156.694z M628.17,156.694
						c0-5.781-2.697-9.131-6.611-9.131c-3.913,0-6.611,3.35-6.611,9.131c0,5.781,2.698,9.132,6.611,9.132
						C625.473,165.826,628.17,162.476,628.17,156.694z"/>
				</g>
				<g>
					<path style="fill:#E0E0E0;" d="M466.481,203.247c0-6.492,3.35-10.524,8.123-10.524c4.773,0,8.123,4.032,8.123,10.524
						c0,6.493-3.35,10.525-8.123,10.525C469.831,213.773,466.481,209.74,466.481,203.247z M481.215,203.247
						c0-5.781-2.697-9.131-6.611-9.131c-3.914,0-6.611,3.35-6.611,9.131c0,5.781,2.697,9.132,6.611,9.132
						C478.518,212.379,481.215,209.028,481.215,203.247z"/>
				</g>
				<g>
					<path style="fill:#E0E0E0;" d="M525.204,192.87v20.754h-1.512v-19.39h-5.07v-1.364H525.204z"/>
				</g>
				<g>
					<path style="fill:#EBEBEB;" d="M563.428,204.523c0-6.492,3.35-10.524,8.123-10.524c4.773,0,8.124,4.032,8.124,10.524
						c0,6.493-3.351,10.525-8.124,10.525C566.778,215.048,563.428,211.016,563.428,204.523z M578.163,204.523
						c0-5.781-2.697-9.131-6.611-9.131c-3.913,0-6.611,3.35-6.611,9.131c0,5.781,2.698,9.132,6.611,9.132
						C575.465,213.655,578.163,210.304,578.163,204.523z"/>
				</g>
				<g>
					<path style="fill:#E0E0E0;" d="M613.436,203.247c0-6.492,3.35-10.524,8.123-10.524c4.773,0,8.123,4.032,8.123,10.524
						c0,6.493-3.35,10.525-8.123,10.525C616.786,213.773,613.436,209.74,613.436,203.247z M628.17,203.247
						c0-5.781-2.697-9.131-6.611-9.131c-3.914,0-6.611,3.35-6.611,9.131c0,5.781,2.697,9.132,6.611,9.132
						C625.473,212.379,628.17,209.028,628.17,203.247z"/>
				</g>
			</g>
			<g>
				<g>
					<path style="fill:#EBEBEB;" d="M466.48,65.348c0-6.492,3.35-10.524,8.123-10.524c4.773,0,8.124,4.032,8.124,10.524
						c0,6.493-3.351,10.525-8.124,10.525C469.83,75.874,466.48,71.841,466.48,65.348z M481.214,65.348
						c0-5.781-2.697-9.131-6.611-9.131c-3.913,0-6.611,3.35-6.611,9.131c0,5.781,2.698,9.132,6.611,9.132
						C478.517,74.48,481.214,71.129,481.214,65.348z"/>
				</g>
				<g>
					<path style="fill:#E0E0E0;" d="M515.465,65.348c0-6.492,3.35-10.524,8.123-10.524c4.773,0,8.125,4.032,8.125,10.524
						c0,6.493-3.352,10.525-8.125,10.525C518.815,75.874,515.465,71.841,515.465,65.348z M530.2,65.348
						c0-5.781-2.697-9.131-6.611-9.131c-3.912,0-6.611,3.35-6.611,9.131c0,5.781,2.699,9.132,6.611,9.132
						C527.503,74.48,530.2,71.129,530.2,65.348z"/>
				</g>
				<g>
					<path style="fill:#E0E0E0;" d="M573.167,54.971v20.754h-1.512v-19.39h-5.07v-1.364H573.167z"/>
				</g>
				<g>
					<path style="fill:#EBEBEB;" d="M613.436,65.348c0-6.492,3.35-10.524,8.123-10.524c4.773,0,8.124,4.032,8.124,10.524
						c0,6.493-3.351,10.525-8.124,10.525C616.786,75.874,613.436,71.841,613.436,65.348z M628.17,65.348
						c0-5.781-2.697-9.131-6.611-9.131c-3.913,0-6.611,3.35-6.611,9.131c0,5.781,2.698,9.132,6.611,9.132
						C625.473,74.48,628.17,71.129,628.17,65.348z"/>
				</g>
				<g>
					<path style="fill:#E0E0E0;" d="M466.481,111.9c0-6.492,3.35-10.524,8.123-10.524c4.773,0,8.123,4.032,8.123,10.524
						c0,6.493-3.35,10.525-8.123,10.525C469.831,122.426,466.481,118.394,466.481,111.9z M481.215,111.9
						c0-5.781-2.697-9.131-6.611-9.131c-3.914,0-6.611,3.35-6.611,9.131c0,5.781,2.697,9.132,6.611,9.132
						C478.518,121.032,481.215,117.682,481.215,111.9z"/>
				</g>
				<g>
					<path style="fill:#E0E0E0;" d="M525.204,101.523v20.754h-1.512v-19.39h-5.07v-1.364H525.204z"/>
				</g>
				<g>
					<path style="fill:#EBEBEB;" d="M563.428,113.176c0-6.492,3.35-10.524,8.123-10.524c4.773,0,8.124,4.032,8.124,10.524
						c0,6.493-3.351,10.525-8.124,10.525C566.778,123.702,563.428,119.67,563.428,113.176z M578.163,113.176
						c0-5.781-2.697-9.131-6.611-9.131c-3.913,0-6.611,3.35-6.611,9.131c0,5.781,2.698,9.132,6.611,9.132
						C575.465,122.308,578.163,118.957,578.163,113.176z"/>
				</g>
				<g>
					<path style="fill:#E0E0E0;" d="M613.436,111.9c0-6.492,3.35-10.524,8.123-10.524c4.773,0,8.123,4.032,8.123,10.524
						c0,6.493-3.35,10.525-8.123,10.525C616.786,122.426,613.436,118.394,613.436,111.9z M628.17,111.9
						c0-5.781-2.697-9.131-6.611-9.131c-3.914,0-6.611,3.35-6.611,9.131c0,5.781,2.697,9.132,6.611,9.132
						C625.473,121.032,628.17,117.682,628.17,111.9z"/>
				</g>
			</g>
		</g>
	</g>
</g>
<g id="Background_Simple" style="display:none;">
	<g style="display:inline;">
		<g>
			<path style="fill:#F0F0F0;" d="M405.003,193.427c25.479-1.985,32.045-4.558,57.345-8.164c31.691-4.517,47.5-8.549,78.942-2.538
				c31.442,6.011,62.329,24.567,74.514,54.169c15.31,37.194-3.581,81.658-34.724,107.112
				c-31.143,25.454-71.779,35.732-111.359,42.887c-34.377,6.214-69.307,10.622-104.193,8.807
				c-34.887-1.815-69.899-10.093-99.981-27.854c-37.452-22.112-65.286-57.634-86.696-95.492
				c-15.529-27.459-28.359-57.399-29.695-88.917c-1.336-31.518,10.552-64.934,36.276-83.195
				c32.39-22.994,78.787-16.466,111.99,5.339c29.931,19.657,40.822,32.869,58.168,59.917c6.752,10.529,16.372,19.014,27.877,23.922
				C389.905,192.167,397.302,194.027,405.003,193.427z"/>
		</g>
	</g>
</g>
<g id="Device">
	<g>
		<g>
			<g>
				<g>
					<path style="fill:#263238;" d="M561.493,401.085H188.592c-8.045,0-14.567-6.522-14.567-14.567V149.79
						c0-8.045,6.522-14.567,14.567-14.567h372.901c8.045,0,14.567,6.522,14.567,14.567v236.728
						C576.06,394.563,569.538,401.085,561.493,401.085z"/>
				</g>
			</g>
			<g>
				<g>
					<path style="fill:#263238;" d="M574.99,404.684H175.01c-9.829,0-17.798-7.968-17.798-17.798v-5.465h435.575v5.465
						C592.787,396.716,584.819,404.684,574.99,404.684z"/>
				</g>
			</g>
			<g>
				<g>
					<rect x="184.816" y="145.785" style="fill:#E0E0E0;" width="379.328" height="224.517"/>
				</g>
			</g>
			<g>
				<g>
					<polygon style="fill:#455A64;" points="335.41,381.421 340.815,390.019 416.872,390.019 421.891,381.421 					"/>
				</g>
			</g>
		</g>
		<g>
			<g>
				<g>
					<g>
						<g>
							<g>
								<path style="fill:#455A64;" d="M553.839,369.583H195.903c-1.808,0-3.273-1.466-3.273-3.273V156.659
									c0-1.808,1.465-3.273,3.273-3.273h357.937c1.807,0,3.272,1.465,3.272,3.273v209.652
									C557.112,368.118,555.646,369.583,553.839,369.583z"/>
							</g>
						</g>
					</g>
					<g>
						<g>
							<g>
								<rect x="192.63" y="169.227" style="fill:#FAFAFA;" width="364.482" height="200.357"/>
							</g>
						</g>
					</g>
					<g>
						<g>
							<g>
								<path style="fill:#E8505B;" d="M222.523,161.735c0,1.608-1.303,2.911-2.911,2.911s-2.91-1.303-2.91-2.911
									s1.303-2.91,2.91-2.91S222.523,160.128,222.523,161.735z"/>
							</g>
						</g>
					</g>
					<g>
						<g>
							<g>
								<path style="fill:#E8505B;" d="M204.881,161.735c0,1.608-1.303,2.911-2.911,2.911c-1.607,0-2.911-1.303-2.911-2.911
									s1.304-2.91,2.911-2.91C203.578,158.825,204.881,160.128,204.881,161.735z"/>
							</g>
						</g>
					</g>
					<g>
						<g>
							<g>
								<path style="fill:#E8505B;" d="M213.349,161.735c0,1.608-1.303,2.911-2.911,2.911c-1.608,0-2.911-1.303-2.911-2.911
									s1.303-2.91,2.911-2.91C212.046,158.825,213.349,160.128,213.349,161.735z"/>
							</g>
						</g>
					</g>
				</g>
			</g>
			<g>
				<g>
					<g>
						<g>
							<path style="fill:#263238;" d="M465.252,252.678c0,0,0.383-0.037,1.129-0.084c0.371-0.037,0.829-0.125,1.374-0.213
								c0.534-0.147,1.163-0.28,1.837-0.561c1.346-0.526,2.969-1.411,4.443-2.949c0.741-0.762,1.414-1.697,2.004-2.765
								c0.571-1.081,1-2.324,1.234-3.679c0.488-2.698,0.005-5.941-1.843-8.746c-1.81-2.798-5.108-5.039-9.011-5.413
								c-0.968-0.067-1.973-0.059-2.993-0.054c-1.02,0.002-2.056,0.003-3.109,0.005c-2.106,0.003-4.278,0.006-6.514,0.01
								c-4.472,0.006-9.199,0.012-14.162,0.019c-39.715,0.019-94.563,0.046-155.141,0.076c-3.709,0.004-7.369,1.778-9.564,4.727
								c-1.11,1.453-1.896,3.15-2.257,4.933c-0.348,1.785-0.296,3.64,0.153,5.387c0.866,3.52,3.434,6.503,6.677,7.964
								c1.616,0.75,3.387,1.106,5.16,1.087c1.801,0,3.595,0.001,5.381,0.001c14.285,0.005,28.065,0.01,41.192,0.015
								c26.251,0.021,49.891,0.04,69.748,0.056c19.847,0.035,35.909,0.063,47.021,0.083c5.544,0.021,9.85,0.038,12.784,0.049
								c1.454,0.011,2.565,0.02,3.325,0.026C464.868,252.66,465.252,252.678,465.252,252.678s-0.384,0.018-1.133,0.027
								c-0.76,0.006-1.871,0.014-3.325,0.026c-2.934,0.011-7.24,0.028-12.784,0.049c-11.113,0.02-27.175,0.048-47.021,0.083
								c-19.857,0.016-43.496,0.035-69.748,0.056c-13.127,0.005-26.906,0.01-41.192,0.015c-1.786,0-3.579,0.001-5.381,0.001
								c-1.831,0.021-3.691-0.35-5.373-1.131c-3.383-1.522-6.061-4.631-6.966-8.304c-0.469-1.823-0.523-3.756-0.16-5.619
								c0.375-1.861,1.195-3.632,2.353-5.147c2.288-3.075,6.109-4.929,9.976-4.932c60.578,0.03,115.426,0.057,155.141,0.076
								c4.963,0.007,9.69,0.013,14.162,0.018c2.236,0.003,4.408,0.007,6.514,0.01c1.053,0.002,2.09,0.003,3.109,0.005
								c1.019-0.001,2.02-0.007,3.021,0.065c3.996,0.397,7.357,2.704,9.191,5.567c1.874,2.871,2.347,6.178,1.836,8.917
								c-0.245,1.376-0.689,2.636-1.275,3.729c-0.606,1.081-1.294,2.023-2.051,2.789c-1.504,1.547-3.153,2.425-4.517,2.94
								c-0.682,0.275-1.319,0.402-1.858,0.541c-0.551,0.081-1.012,0.16-1.386,0.189
								C465.635,252.677,465.252,252.678,465.252,252.678z"/>
						</g>
					</g>
					<g>
						<path style="fill:#E8505B;" d="M465.252,252.678h-23.654v-24.616h23.654c6.798,0,12.308,5.51,12.308,12.308l0,0
							C477.56,247.168,472.05,252.678,465.252,252.678z"/>
					</g>
					<g>
						<g>
							<g>
								<path style="fill:#FFFFFF;" d="M461.117,238.054c-0.05,0.002-0.045-0.417-0.245-1.119c-0.198-0.689-0.677-1.692-1.717-2.459
									c-1.006-0.769-2.651-1.193-4.237-0.597c-1.573,0.547-2.928,2.222-2.911,4.174c-0.018,1.954,1.337,3.629,2.911,4.176
									c1.587,0.596,3.232,0.172,4.238-0.597c1.04-0.766,1.519-1.77,1.717-2.459C461.072,238.471,461.067,238.051,461.117,238.054
									c0.018,0,0.03,0.103,0.037,0.302c0.011,0.198-0.008,0.495-0.085,0.867c-0.145,0.733-0.595,1.833-1.691,2.702
									c-1.057,0.87-2.855,1.39-4.625,0.756c-1.754-0.578-3.289-2.441-3.268-4.627c-0.021-2.185,1.514-4.048,3.268-4.625
									c1.77-0.634,3.567-0.115,4.624,0.755c1.095,0.869,1.545,1.968,1.691,2.702c0.078,0.372,0.096,0.668,0.086,0.867
									C461.147,237.951,461.135,238.054,461.117,238.054z"/>
							</g>
						</g>
						<g>
							<g>
								<path style="fill:#FFFFFF;" d="M467.412,245.876c-0.08,0.119-1.783-0.883-3.802-2.238c-2.02-1.356-3.592-2.551-3.512-2.671
									c0.08-0.119,1.782,0.883,3.802,2.238C465.92,244.56,467.492,245.756,467.412,245.876z"/>
							</g>
						</g>
					</g>
					<g>
						<g>
							<path style="fill:#455A64;" d="M287.469,247.291c-0.144,0-0.26-3.117-0.26-6.961c0-3.846,0.117-6.962,0.26-6.962
								s0.26,3.116,0.26,6.962C287.73,244.174,287.613,247.291,287.469,247.291z"/>
						</g>
					</g>
				</g>
				<g>
					<g>
						<g>
							<g>
								<g>
									<rect x="257.535" y="295.143" style="fill:#E0E0E0;" width="59.089" height="57.169"/>
								</g>
							</g>
						</g>
						<g>
							<g>
								<g>
									<polygon style="fill:#E8505B;" points="262.116,347.419 278.462,318 291.832,336.804 299.956,326.818 312.043,347.419 
																			"/>
								</g>
							</g>
						</g>
						<g>
							<g>
								<g>
									<path style="fill:#E8505B;" d="M297.527,312.279c0,2.349-1.903,4.252-4.252,4.252c-2.349,0-4.253-1.904-4.253-4.252
										s1.904-4.252,4.253-4.252C295.624,308.026,297.527,309.93,297.527,312.279z"/>
								</g>
							</g>
						</g>
						<g>
							<g>
								<g>
									<g>
										<path style="fill:#455A64;" d="M312.043,347.578c-0.004-0.004-0.009-0.083-0.014-0.234
											c-0.003-0.171-0.008-0.389-0.013-0.667c-0.007-0.608-0.017-1.467-0.028-2.573c-0.015-2.267-0.036-5.546-0.063-9.709
											c-0.029-8.35-0.072-20.241-0.123-34.518l0.241,0.241c-14.46,0.012-31.601,0.025-49.922,0.04
											c-0.067,0.059,0.528-0.529,0.277-0.273v0.013v0.025v0.051v0.102v0.204v0.408v0.814l0,1.624c0,1.081,0,2.156-0.001,3.228
											c0,2.142-0.001,4.265-0.001,6.365c-0.003,4.201-0.005,8.314-0.007,12.319c-0.009,8.006-0.019,15.576-0.027,22.54
											l-0.245-0.245c14.9,0.052,27.348,0.095,36.099,0.125c4.363,0.027,7.804,0.049,10.182,0.064
											c1.162,0.012,2.064,0.022,2.701,0.029c0.292,0.006,0.521,0.01,0.699,0.014
											C311.956,347.569,312.038,347.573,312.043,347.578c0.005,0.004-0.068,0.009-0.218,0.014
											c-0.173,0.003-0.393,0.008-0.674,0.014c-0.626,0.006-1.512,0.016-2.653,0.028c-2.365,0.015-5.787,0.037-10.126,0.064
											c-8.789,0.03-21.29,0.073-36.256,0.125l-0.245,0.001l0-0.247c-0.008-6.963-0.017-14.533-0.027-22.54
											c-0.002-4.004-0.004-8.118-0.007-12.319c-0.001-2.101-0.002-4.223-0.002-6.365c0-1.071-0.001-2.147-0.001-3.228v-1.624
											v-0.814v-0.408v-0.204v-0.102v-0.051v-0.025v-0.013c-0.251,0.247,0.341-0.352,0.286-0.289
											c18.322,0.015,35.462,0.028,49.922,0.039l0.243,0.001l-0.001,0.242c-0.052,14.34-0.094,26.284-0.124,34.672
											c-0.027,4.14-0.048,7.4-0.063,9.654c-0.013,1.086-0.022,1.929-0.028,2.526c-0.006,0.267-0.01,0.476-0.014,0.641
											C312.052,347.513,312.048,347.582,312.043,347.578z"/>
									</g>
								</g>
							</g>
						</g>
					</g>
				</g>
				<g>
					<g>
						<g>
							<g>
								<g>
									<rect x="351.591" y="295.143" style="fill:#E8505B;" width="59.089" height="57.169"/>
								</g>
							</g>
						</g>
						<g>
							<g>
								<g>
									<polygon style="fill:#E0E0E0;" points="356.172,347.419 372.518,318 385.888,336.804 394.012,326.818 406.099,347.419 
																			"/>
								</g>
							</g>
						</g>
						<g>
							<g>
								<g>
									<path style="fill:#E0E0E0;" d="M391.583,312.279c0,2.349-1.903,4.252-4.252,4.252c-2.349,0-4.253-1.904-4.253-4.252
										s1.904-4.252,4.253-4.252C389.68,308.026,391.583,309.93,391.583,312.279z"/>
								</g>
							</g>
						</g>
						<g>
							<g>
								<g>
									<g>
										<path style="fill:#455A64;" d="M406.099,347.578c-0.004-0.004-0.009-0.083-0.014-0.234
											c-0.003-0.171-0.008-0.389-0.013-0.667c-0.007-0.608-0.017-1.467-0.028-2.573c-0.015-2.267-0.036-5.546-0.063-9.709
											c-0.029-8.35-0.072-20.241-0.123-34.518l0.241,0.241c-14.46,0.012-31.601,0.025-49.922,0.04
											c-0.067,0.059,0.528-0.529,0.277-0.273v0.013v0.025v0.051v0.102v0.204v0.408v0.814l0,1.624c0,1.081,0,2.156-0.001,3.228
											c0,2.142-0.001,4.265-0.001,6.365c-0.003,4.201-0.005,8.314-0.007,12.319c-0.009,8.006-0.019,15.576-0.027,22.54
											l-0.245-0.245c14.9,0.052,27.348,0.095,36.099,0.125c4.363,0.027,7.804,0.049,10.182,0.064
											c1.162,0.012,2.064,0.022,2.701,0.029c0.292,0.006,0.521,0.01,0.699,0.014
											C406.012,347.569,406.094,347.573,406.099,347.578c0.005,0.004-0.068,0.009-0.218,0.014
											c-0.173,0.003-0.393,0.008-0.674,0.014c-0.626,0.006-1.512,0.016-2.653,0.028c-2.365,0.015-5.787,0.037-10.126,0.064
											c-8.789,0.03-21.29,0.073-36.256,0.125l-0.245,0.001l0-0.247c-0.008-6.963-0.017-14.533-0.027-22.54
											c-0.002-4.004-0.004-8.118-0.007-12.319c-0.001-2.101-0.002-4.223-0.002-6.365c0-1.071-0.001-2.147-0.001-3.228v-1.624
											v-0.814v-0.408v-0.204v-0.102v-0.051v-0.025v-0.013c-0.251,0.247,0.341-0.352,0.286-0.289
											c18.322,0.015,35.462,0.028,49.922,0.039l0.243,0.001l-0.001,0.242c-0.052,14.34-0.094,26.284-0.124,34.672
											c-0.027,4.14-0.048,7.4-0.063,9.654c-0.013,1.086-0.022,1.929-0.028,2.526c-0.006,0.267-0.01,0.476-0.014,0.641
											C406.108,347.513,406.104,347.582,406.099,347.578z"/>
									</g>
								</g>
							</g>
						</g>
					</g>
				</g>
				<g>
					<g>
						<g>
							<g>
								<g>
									<rect x="445.647" y="295.143" style="fill:#E0E0E0;" width="59.089" height="57.169"/>
								</g>
							</g>
						</g>
						<g>
							<g>
								<g>
									<polygon style="fill:#E8505B;" points="450.228,347.419 466.574,318 479.944,336.804 488.068,326.818 500.155,347.419 
																			"/>
								</g>
							</g>
						</g>
						<g>
							<g>
								<g>
									<path style="fill:#E8505B;" d="M485.639,312.279c0,2.349-1.903,4.252-4.252,4.252c-2.349,0-4.253-1.904-4.253-4.252
										s1.904-4.252,4.253-4.252C483.736,308.026,485.639,309.93,485.639,312.279z"/>
								</g>
							</g>
						</g>
						<g>
							<g>
								<g>
									<g>
										<path style="fill:#455A64;" d="M500.155,347.578c-0.004-0.004-0.009-0.083-0.014-0.234
											c-0.003-0.171-0.008-0.389-0.013-0.667c-0.007-0.608-0.017-1.467-0.028-2.573c-0.015-2.267-0.036-5.546-0.063-9.709
											c-0.029-8.35-0.072-20.241-0.123-34.518l0.241,0.241c-14.46,0.012-31.601,0.025-49.922,0.04
											c-0.067,0.059,0.528-0.529,0.277-0.273v0.013v0.025v0.051v0.102v0.204v0.408v0.814l0,1.624c0,1.081,0,2.156-0.001,3.228
											c0,2.142-0.001,4.265-0.001,6.365c-0.003,4.201-0.005,8.314-0.007,12.319c-0.009,8.006-0.019,15.576-0.027,22.54
											l-0.245-0.245c14.9,0.052,27.348,0.095,36.099,0.125c4.363,0.027,7.804,0.049,10.182,0.064
											c1.162,0.012,2.064,0.022,2.701,0.029c0.292,0.006,0.521,0.01,0.699,0.014
											C500.068,347.569,500.15,347.573,500.155,347.578c0.005,0.004-0.068,0.009-0.218,0.014
											c-0.173,0.003-0.393,0.008-0.674,0.014c-0.626,0.006-1.512,0.016-2.653,0.028c-2.365,0.015-5.787,0.037-10.126,0.064
											c-8.789,0.03-21.29,0.073-36.256,0.125l-0.245,0.001l0-0.247c-0.008-6.963-0.017-14.533-0.027-22.54
											c-0.002-4.004-0.004-8.118-0.007-12.319c-0.001-2.101-0.002-4.223-0.002-6.365c0-1.071-0.001-2.147-0.001-3.228v-1.624
											v-0.814v-0.408v-0.204v-0.102v-0.051v-0.025v-0.013c-0.251,0.247,0.341-0.352,0.286-0.289
											c18.322,0.015,35.462,0.028,49.922,0.039l0.243,0.001l-0.001,0.242c-0.052,14.34-0.094,26.284-0.124,34.672
											c-0.027,4.14-0.048,7.4-0.063,9.654c-0.013,1.086-0.021,1.929-0.028,2.526c-0.006,0.267-0.01,0.476-0.014,0.641
											C500.164,347.513,500.16,347.582,500.155,347.578z"/>
									</g>
								</g>
							</g>
						</g>
					</g>
				</g>
				<g>
					<rect x="337.453" y="199.122" style="fill:#455A64;" width="74.835" height="6.272"/>
				</g>
			</g>
		</g>
		<g>
			<g>
				<path style="fill:#455A64;" d="M572.605,381.421c0,0.144-89.232,0.26-199.281,0.26c-110.087,0-199.3-0.117-199.3-0.26
					c0-0.144,89.213-0.26,199.3-0.26C483.373,381.161,572.605,381.277,572.605,381.421z"/>
			</g>
		</g>
	</g>
</g>
<g id="Plants">
	<g>
		<g>
			<g>
				<g>
					<path style="fill:#E8505B;" d="M117.113,271.945c-5.665,0.911-8.197,7.872-7.702,13.588c0.495,5.716,2.845,11.304,2.216,17.006
						c-0.798,7.242-6.271,13.363-6.908,20.621c-0.752,8.56,5.3,16.151,7.107,24.552c0.879,4.087,0.756,8.409,2.278,12.303
						c2.566,6.565,10.09,10.781,17.03,9.542c6.939-1.239,12.539-7.8,12.673-14.848c0.125-6.572-3.93-12.763-3.438-19.317
						c0.364-4.846,3.204-9.437,2.596-14.257c-0.724-5.735-6.039-9.809-7.914-15.277c-1.876-5.47-0.074-11.497-0.721-17.244
						C133.17,278.304,127.454,271.117,117.113,271.945"/>
				</g>
			</g>
			<g>
				<path style="fill:#E8505B;" d="M88.188,321.86c-0.964,9.552,3.26,20.79,8.172,29.038c4.913,8.249,12.527,14.857,21.384,18.561
					c0.999,0.418,2.243,0.769,3.083,0.087c0.688-0.56,0.774-1.563,0.78-2.45c0.067-10.052-3.204-20.098-9.177-28.183
					C106.457,330.827,97.815,324.748,88.188,321.86"/>
				<path style="opacity:0.2;" d="M88.188,321.86c-0.964,9.552,3.26,20.79,8.172,29.038c4.913,8.249,12.527,14.857,21.384,18.561
					c0.999,0.418,2.243,0.769,3.083,0.087c0.688-0.56,0.774-1.563,0.78-2.45c0.067-10.052-3.204-20.098-9.177-28.183
					C106.457,330.827,97.815,324.748,88.188,321.86"/>
			</g>
			<g>
				<g>
					<g>
						<path style="fill:#263238;" d="M129.798,389.431c-0.017,0.007-0.11-0.177-0.272-0.532c-0.18-0.412-0.406-0.93-0.682-1.565
							c-0.574-1.364-1.432-3.328-2.525-5.738c-2.181-4.822-5.414-11.387-9.484-18.36c-4.08-6.971-8.214-13.01-11.344-17.276
							c-1.564-2.136-2.853-3.847-3.761-5.017c-0.417-0.552-0.757-1.002-1.028-1.361c-0.23-0.315-0.345-0.486-0.33-0.498
							c0.015-0.012,0.157,0.136,0.415,0.429c0.292,0.343,0.659,0.772,1.108,1.299c0.959,1.131,2.297,2.809,3.903,4.919
							c3.216,4.216,7.413,10.24,11.505,17.233c4.081,6.994,7.27,13.606,9.366,18.477c1.05,2.436,1.856,4.425,2.37,5.816
							c0.238,0.649,0.433,1.18,0.587,1.603C129.756,389.228,129.815,389.424,129.798,389.431z"/>
					</g>
				</g>
			</g>
			<g>
				<g>
					<g>
						<path style="fill:#263238;" d="M123.648,298.371c0.019-0.001,0.054,0.315,0.104,0.916c0.047,0.648,0.111,1.525,0.191,2.631
							c0.15,2.336,0.362,5.63,0.623,9.679c0.516,8.173,1.241,19.463,2.117,31.927c0.878,12.468,1.742,23.748,2.376,31.913
							c0.31,4.045,0.561,7.336,0.74,9.671c0.075,1.105,0.135,1.982,0.179,2.631c0.035,0.602,0.045,0.919,0.026,0.921
							c-0.019,0.001-0.064-0.313-0.135-0.911c-0.069-0.647-0.163-1.522-0.281-2.622c-0.22-2.332-0.53-5.618-0.912-9.657
							c-0.732-8.158-1.657-19.436-2.535-31.907c-0.876-12.467-1.541-23.763-1.959-31.943c-0.188-4.053-0.341-7.351-0.45-9.69
							c-0.038-1.107-0.067-1.986-0.089-2.636C123.628,298.69,123.63,298.372,123.648,298.371z"/>
					</g>
				</g>
			</g>
		</g>
		<g>
			<g>
				<path style="fill:#455A64;" d="M114.862,375.809h23.922v17.563c0,6.343-5.141,11.483-11.483,11.483l0,0
					c-6.104,0-11.141-4.774-11.467-10.87L114.862,375.809z"/>
			</g>
		</g>
	</g>
	<g>
		<path style="fill:#E8505B;" d="M645.383,375.53c3.534-1.823,7.695-2.06,11.618-1.412c2.108,0.348,4.305,0.979,5.739,2.562
			c1.434,1.583,1.706,4.369,0.059,5.73c-0.98,0.81-2.347,0.933-3.619,0.918c-3.071-0.036-6.479-0.577-8.932,1.271
			c-1.4,1.054-2.332,2.807-4.005,3.325c-1.637,0.507-3.485-0.459-4.353-1.937c-0.868-1.478-0.897-3.325-0.492-4.991
			C641.397,380.997,641.823,377.367,645.383,375.53z"/>
		<path style="fill:#E8505B;" d="M637.287,359.902c2.161,3.086,6.36,2.064,8.308,0.181c1.947-1.884,2.77-4.614,3.52-7.218
			c1.712-5.949,3.438-12.189,2.165-18.247c-0.381-1.811-1.058-3.617-2.33-4.961c-1.273-1.344-3.23-2.143-5.019-1.67
			c-2.117,0.559-3.434,2.633-4.385,4.606c-2.796,5.799-4.277,12.228-4.298,18.667C635.236,354.266,635.591,357.419,637.287,359.902"
			/>
		<path style="fill:#E8505B;" d="M631.353,364.33c2.346-2.785,2.791-6.846,1.747-10.334c-1.044-3.488-3.403-6.456-6.121-8.879
			c-3.187-2.84-6.933-5.051-10.96-6.467c-1.585-0.557-3.257-0.997-4.929-0.837c-1.672,0.16-3.357,1.015-4.137,2.503
			c-1.153,2.2-0.047,4.868,1.149,7.045c2.107,3.835,4.517,7.504,7.199,10.962c2.158,2.782,4.629,5.526,7.918,6.783
			c3.288,1.257,6.704,1.109,8.447-1.171"/>
		<g>
			<path style="fill:#263238;" d="M637.14,406.456c0.04,0.002,0.106-0.497,0.195-1.402c0.099-1.021,0.224-2.302,0.372-3.827
				c0.178-1.611,0.414-3.527,0.861-5.614c0.446-2.082,1.144-4.338,2.04-6.626c0.928-2.275,2.06-4.342,3.383-5.995
				c1.313-1.661,2.841-2.863,4.277-3.556c1.431-0.707,2.715-0.994,3.602-1.122c0.895-0.092,1.396-0.162,1.396-0.202
				c0-0.04-0.502-0.046-1.421-0.022c-0.911,0.061-2.247,0.291-3.756,0.978c-1.513,0.671-3.134,1.892-4.512,3.587
				c-1.389,1.688-2.562,3.801-3.507,6.116c-0.912,2.328-1.6,4.607-2.026,6.734c-0.425,2.123-0.619,4.061-0.746,5.684
				c-0.122,1.625-0.168,2.941-0.19,3.851C637.091,405.95,637.101,406.454,637.14,406.456z"/>
		</g>
		<g>
			<path style="fill:#263238;" d="M637.404,403.511c0.02-0.001,0.032-0.225,0.038-0.651c-0.001-0.489-0.003-1.105-0.005-1.861
				c-0.005-1.615-0.004-3.952,0.083-6.837c0.143-5.771,0.64-13.738,1.6-22.495c0.967-8.76,2.248-16.639,3.416-22.292
				c0.276-1.417,0.554-2.692,0.816-3.809c0.25-1.119,0.463-2.084,0.668-2.865c0.177-0.735,0.32-1.334,0.435-1.809
				c0.093-0.415,0.133-0.637,0.114-0.642c-0.019-0.006-0.096,0.204-0.226,0.61c-0.142,0.468-0.321,1.058-0.54,1.783
				c-0.24,0.773-0.485,1.732-0.765,2.847c-0.292,1.112-0.599,2.384-0.901,3.799c-1.274,5.646-2.622,13.536-3.591,22.314
				c-0.962,8.775-1.395,16.765-1.433,22.551c-0.034,2.893,0.027,5.235,0.101,6.851c0.046,0.756,0.084,1.371,0.114,1.86
				C637.358,403.29,637.384,403.512,637.404,403.511z"/>
		</g>
		<g>
			<path style="fill:#263238;" d="M637.443,388.1c0.04-0.001,0.033-0.692-0.014-1.944c-0.072-1.249-0.243-3.055-0.595-5.266
				c-0.373-2.206-0.894-4.826-1.713-7.673c-0.779-2.857-1.848-5.942-3.208-9.079c-2.661-6.313-6.277-11.475-9.423-14.672
				c-0.738-0.849-1.56-1.461-2.217-2.061c-0.34-0.288-0.641-0.574-0.947-0.801c-0.308-0.212-0.594-0.41-0.86-0.593
				c-1.035-0.708-1.615-1.081-1.637-1.048c-0.093,0.126,2.319,1.546,5.364,4.785c3.033,3.233,6.548,8.359,9.187,14.619
				c1.348,3.11,2.425,6.166,3.227,8.995c0.841,2.819,1.4,5.412,1.822,7.597c0.401,2.189,0.634,3.977,0.774,5.214
				C637.32,387.415,637.403,388.102,637.443,388.1z"/>
		</g>
	</g>
</g>
<g id="Pictures">
	<g>
		<g>
			<g>
				<g>
					<polygon style="fill:#E8505B;" points="664.571,190.523 608.084,191.687 609.602,265.348 666.117,265.601 					"/>
				</g>
			</g>
		</g>
		<g>
			<g>
				<g>
					<polygon style="fill:#FAFAFA;" points="660.908,193.221 611.48,194.239 612.857,261.045 662.319,261.695 					"/>
				</g>
			</g>
		</g>
		<g>
			<g>
				<g>
					<polygon style="fill:#263238;" points="652.503,205.538 619.677,204.964 620.639,251.66 653.439,250.984 					"/>
				</g>
			</g>
		</g>
		<g>
			<g>
				<g>
					<polygon style="fill:#455A64;" points="620.639,251.66 652.945,226.994 619.677,204.964 					"/>
				</g>
			</g>
		</g>
	</g>
	<g>
		<g>
			<g>
				<g>
					<g>
						<polygon style="fill:#455A64;" points="645.34,129.467 606.553,130.266 607.595,180.847 646.402,181.021 						"/>
					</g>
				</g>
			</g>
			<g>
				<g>
					<g>
						<polygon style="fill:#FAFAFA;" points="642.826,131.32 608.885,132.019 609.83,177.892 643.794,178.339 						"/>
					</g>
				</g>
			</g>
			<g>
				<g>
					<g>
						<polygon style="fill:#E8505B;" points="637.054,139.778 614.513,139.384 615.174,171.448 637.696,170.984 						"/>
					</g>
				</g>
			</g>
		</g>
		<g>
			<g>
				<g>
					<path style="fill:#263238;" d="M629.634,154.991c-0.045-0.021,0.132-0.362,0.258-1.018c0.123-0.645,0.147-1.661-0.383-2.716
						c-0.501-1.043-1.664-2.069-3.201-2.241c-1.506-0.207-3.301,0.593-4.096,2.186c-0.825,1.58-0.419,3.503,0.632,4.601
						c1.042,1.143,2.555,1.483,3.693,1.277c1.165-0.189,1.974-0.805,2.424-1.283C629.419,155.31,629.591,154.967,629.634,154.991
						c0.021,0.008-0.089,0.386-0.52,0.94c-0.423,0.541-1.25,1.256-2.511,1.512c-1.23,0.273-2.922-0.051-4.11-1.312
						c-1.198-1.208-1.678-3.38-0.745-5.165c0.898-1.802,2.939-2.688,4.619-2.426c1.717,0.222,2.973,1.402,3.474,2.558
						c0.532,1.171,0.439,2.26,0.249,2.92C629.895,154.692,629.653,155.003,629.634,154.991z"/>
				</g>
			</g>
			<g>
				<g>
					<path style="fill:#263238;" d="M631.516,164.004c-0.126,0.07-1.107-1.454-2.192-3.403c-1.085-1.949-1.862-3.586-1.737-3.656
						c0.126-0.07,1.107,1.453,2.192,3.403C630.864,162.297,631.641,163.934,631.516,164.004z"/>
				</g>
			</g>
		</g>
	</g>
</g>
<g id="Floor">
	<g>
		<g>
			<path style="fill:#263238;" d="M665.621,404.684c0,0.144-126.524,0.26-282.563,0.26c-156.093,0-282.59-0.117-282.59-0.26
				s126.497-0.26,282.59-0.26C539.097,404.423,665.621,404.54,665.621,404.684z"/>
		</g>
	</g>
</g>
<g id="Character">
	<g>
		<path style="fill:#FFBE9D;" d="M501.35,280.224c0,0,0.892-9.492,1.795-9.415c0.903,0.077,1.041,1.76,0.936,2.577
			c-0.105,0.816,0.039,3.987,0.039,3.987L501.35,280.224z"/>
		<g>
			<path style="fill:#263238;" d="M582.775,272.45l-4.544,31.97l21.016,91.737l-58.006,4.644l24.96-147.736
				C566.201,253.065,582.732,251.223,582.775,272.45z"/>
		</g>
		<g>
			<g>
				<polygon style="fill:#FFBE9D;" points="511.467,433.939 508.118,471.801 522.432,471.801 528.741,433.939 				"/>
			</g>
			<g>
				<g>
					<path style="fill:#FFBE9D;" d="M508.118,471.801c0,0-9.656,1.247-11.38,2.494l25.307-0.305l0.387-2.188H508.118z"/>
				</g>
				<g>
					<polygon style="fill:#E8505B;" points="496.738,474.295 496.738,475.306 522.801,475.029 522.801,473.94 					"/>
				</g>
				<g>
					<g>
						<path style="fill:#E8505B;" d="M505.957,474.879c-0.133,0.058-0.548-0.717-1.388-1.326c-0.827-0.627-1.689-0.798-1.672-0.943
							c-0.011-0.133,1.011-0.177,1.97,0.541C505.832,473.86,506.087,474.851,505.957,474.879z"/>
					</g>
				</g>
				<g>
					<g>
						<path style="fill:#E8505B;" d="M522.758,471.046c0.026,0.148-1.739,0.494-3.716,1.43c-1.986,0.919-3.383,2.051-3.48,1.936
							c-0.092-0.086,1.204-1.433,3.268-2.389C520.886,471.053,522.751,470.92,522.758,471.046z"/>
					</g>
				</g>
				<g>
					<g>
						<path style="fill:#E8505B;" d="M522.172,470.431c-0.007,0.138-3.16,0.091-7.042-0.105c-3.883-0.196-7.024-0.467-7.017-0.605
							c0.007-0.138,3.159-0.091,7.042,0.105C519.037,470.022,522.179,470.293,522.172,470.431z"/>
					</g>
				</g>
				<g>
					<g>
						<path style="fill:#E8505B;" d="M523.852,465.454c0.025,0.136-3.445,0.883-7.749,1.669c-4.305,0.786-7.814,1.312-7.839,1.176
							c-0.025-0.136,3.444-0.883,7.749-1.669C520.317,465.845,523.827,465.318,523.852,465.454z"/>
					</g>
				</g>
				<g>
					<g>
						<path style="fill:#E8505B;" d="M523.596,465.631c-0.009,0.057-0.76,0.012-1.89-0.411c-0.561-0.215-1.213-0.527-1.875-0.976
							c-0.333-0.227-0.661-0.473-0.995-0.776c-0.166-0.158-0.338-0.353-0.435-0.617c-0.093-0.268-0.098-0.58,0.079-0.863
							c0.184-0.297,0.559-0.386,0.815-0.353c0.268,0.024,0.491,0.113,0.692,0.196c0.411,0.169,0.785,0.381,1.117,0.616
							c0.663,0.472,1.151,1.031,1.478,1.543c0.659,1.037,0.72,1.817,0.671,1.82c-0.083,0.028-0.268-0.697-0.961-1.617
							c-0.344-0.457-0.825-0.951-1.45-1.366c-0.313-0.206-0.66-0.393-1.038-0.54c-0.37-0.166-0.795-0.236-0.906-0.024
							c-0.152,0.237-0.012,0.597,0.278,0.853c0.291,0.272,0.613,0.529,0.919,0.751c0.618,0.449,1.226,0.779,1.75,1.028
							C522.899,465.384,523.614,465.553,523.596,465.631z"/>
					</g>
				</g>
				<g>
					<g>
						<path style="fill:#E8505B;" d="M523.467,465.971c-0.043,0.022-0.384-0.665-0.356-1.867c0.014-0.596,0.136-1.31,0.44-2.046
							c0.151-0.368,0.353-0.737,0.603-1.093c0.124-0.182,0.259-0.346,0.417-0.524c0.16-0.165,0.396-0.376,0.748-0.373
							c0.352,0.016,0.596,0.249,0.725,0.494c0.128,0.256,0.142,0.514,0.137,0.738c-0.02,0.442-0.091,0.855-0.202,1.24
							c-0.219,0.77-0.593,1.396-0.964,1.863c-0.767,0.931-1.48,1.218-1.499,1.171c-0.051-0.07,0.57-0.459,1.215-1.382
							c0.313-0.463,0.626-1.06,0.802-1.772c0.09-0.353,0.145-0.738,0.157-1.128c0.031-0.375-0.15-0.716-0.386-0.722
							c-0.219-0.025-0.526,0.379-0.753,0.683c-0.233,0.322-0.428,0.656-0.578,0.991c-0.304,0.671-0.453,1.328-0.51,1.886
							C523.348,465.25,523.554,465.952,523.467,465.971z"/>
					</g>
				</g>
				<g>
					<g>
						<path style="fill:#E8505B;" d="M525.394,471.879c-0.117,0.062-0.884-1.204-1.439-2.931c-0.562-1.726-0.682-3.201-0.551-3.219
							c0.142-0.024,0.478,1.381,1.027,3.065C524.972,470.48,525.523,471.816,525.394,471.879z"/>
					</g>
				</g>
				<g>
					<g>
						<path style="fill:#E8505B;" d="M527.103,470.535c-0.075,0.106-1.369-0.744-2.529-2.236c-1.169-1.485-1.682-2.947-1.561-2.993
							c0.133-0.062,0.829,1.256,1.955,2.685C526.083,469.427,527.195,470.421,527.103,470.535z"/>
					</g>
				</g>
			</g>
		</g>
		<g>
			<g>
				<polygon style="fill:#FFBE9D;" points="564.882,437.043 594.199,460.284 601.175,450.082 574.957,421.549 				"/>
			</g>
			<g>
				<g>
					<path style="fill:#FFBE9D;" d="M592.129,460.853c0,0-4.507,8.63-4.472,10.758l14.242-20.922l-1.573-1.57L592.129,460.853z"/>
				</g>
				<g>
					<polygon style="fill:#E8505B;" points="587.657,471.611 588.486,472.191 603.183,450.665 602.291,450.042 					"/>
				</g>
				<g>
					<g>
						<path style="fill:#E8505B;" d="M593.415,464.388c-0.029,0.143-0.901,0.039-1.882,0.379c-0.988,0.319-1.622,0.927-1.731,0.831
							c-0.115-0.067,0.434-0.93,1.572-1.305C592.508,463.907,593.466,464.266,593.415,464.388z"/>
					</g>
				</g>
				<g>
					<g>
						<path style="fill:#E8505B;" d="M599.894,448.42c0.136,0.063-0.59,1.709-0.956,3.866c-0.384,2.154-0.256,3.948-0.406,3.961
							c-0.124,0.026-0.485-1.808-0.087-4.047C598.827,449.958,599.786,448.353,599.894,448.42z"/>
					</g>
				</g>
				<g>
					<g>
						<path style="fill:#E8505B;" d="M599.093,447.867c0.109,0.085-1.556,2.412-3.718,5.198c-2.163,2.786-4.005,4.976-4.114,4.891
							c-0.109-0.085,1.555-2.411,3.719-5.198C597.142,449.972,598.984,447.782,599.093,447.867z"/>
					</g>
				</g>
				<g>
					<g>
						<path style="fill:#E8505B;" d="M595.935,444.321c0.126,0.057-1.076,2.953-2.684,6.466c-1.608,3.514-3.013,6.315-3.139,6.258
							c-0.125-0.057,1.076-2.952,2.684-6.466C594.404,447.065,595.81,444.263,595.935,444.321z"/>
					</g>
				</g>
				<g>
					<g>
						<path style="fill:#E8505B;" d="M595.934,444.631c0.042,0.04-0.425,0.629-1.419,1.314c-0.498,0.336-1.127,0.693-1.874,0.979
							c-0.377,0.143-0.766,0.271-1.206,0.372c-0.224,0.045-0.482,0.075-0.755,0.003c-0.273-0.078-0.532-0.252-0.663-0.559
							c-0.138-0.321,0.004-0.679,0.177-0.87c0.173-0.207,0.374-0.338,0.558-0.455c0.374-0.241,0.762-0.426,1.144-0.563
							c0.767-0.273,1.504-0.354,2.111-0.329c1.228,0.053,1.902,0.45,1.876,0.492c-0.025,0.084-0.724-0.179-1.876-0.138
							c-0.571,0.02-1.252,0.132-1.95,0.406c-0.348,0.138-0.7,0.316-1.037,0.541c-0.348,0.208-0.648,0.517-0.539,0.729
							c0.107,0.26,0.483,0.352,0.859,0.261c0.39-0.083,0.785-0.2,1.142-0.324c0.722-0.249,1.341-0.559,1.845-0.846
							C595.332,445.062,595.88,444.573,595.934,444.631z"/>
					</g>
				</g>
				<g>
					<g>
						<path style="fill:#E8505B;" d="M596.139,444.932c-0.007,0.048-0.765-0.066-1.735-0.777c-0.48-0.353-0.996-0.861-1.425-1.533
							c-0.215-0.335-0.402-0.712-0.551-1.12c-0.079-0.206-0.135-0.411-0.191-0.642c-0.044-0.226-0.082-0.54,0.122-0.827
							c0.215-0.28,0.545-0.346,0.82-0.312c0.283,0.041,0.503,0.178,0.683,0.31c0.351,0.269,0.649,0.564,0.901,0.875
							c0.506,0.621,0.805,1.285,0.975,1.857c0.324,1.162,0.151,1.911,0.102,1.899c-0.086,0.002-0.049-0.73-0.438-1.787
							c-0.201-0.522-0.511-1.12-0.994-1.673c-0.238-0.277-0.522-0.541-0.835-0.775c-0.29-0.241-0.672-0.287-0.813-0.097
							c-0.146,0.166,0.01,0.648,0.129,1.008c0.13,0.375,0.293,0.727,0.481,1.042c0.376,0.633,0.829,1.132,1.254,1.498
							C595.48,444.617,596.174,444.85,596.139,444.932z"/>
					</g>
				</g>
				<g>
					<g>
						<path style="fill:#E8505B;" d="M602.086,446.736c-0.016,0.132-1.493,0.035-3.227-0.499c-1.737-0.528-3.015-1.274-2.955-1.392
							c0.062-0.13,1.406,0.399,3.101,0.913C600.697,446.28,602.108,446.594,602.086,446.736z"/>
					</g>
				</g>
				<g>
					<g>
						<path style="fill:#E8505B;" d="M601.963,444.565c0.044,0.122-1.394,0.696-3.281,0.793c-1.887,0.107-3.379-0.309-3.348-0.434
							c0.026-0.145,1.505,0.039,3.321-0.065C600.471,444.767,601.922,444.424,601.963,444.565z"/>
					</g>
				</g>
			</g>
		</g>
		<g>
			<g>
				<g>
					<g>
						<g>
							<g>
								<path style="fill:#E8505B;" d="M536.615,322.824c0,0-11.196,74.382-9.567,77.977c1.629,3.596,37.894,40.727,37.894,40.727
									l13.609-23.309c0,0-23.998-26.587-23.654-27.967c0.345-1.38,17.302-73.41,17.302-73.41L536.615,322.824z"/>
							</g>
						</g>
					</g>
					<g>
						<path style="fill:#E8505B;" d="M539.204,414.88l9.558-20.995l11.052-23.589c-6.601,9.659-12.419,19.845-17.038,30.839
							C540.953,405.646,539.76,410.228,539.204,414.88z"/>
						<path style="opacity:0.4;" d="M539.204,414.88l9.558-20.995l11.052-23.589c-6.601,9.659-12.419,19.845-17.038,30.839
							C540.953,405.646,539.76,410.228,539.204,414.88z"/>
					</g>
					<g>
						<path style="fill:#E8505B;" d="M532.636,350.281c0.112-0.788,9.144-21.103,9.144-21.103l-4.386-6.186l-0.779-0.168
							L532.636,350.281z"/>
						<path style="opacity:0.4;" d="M532.636,350.281c0.112-0.788,9.144-21.103,9.144-21.103l-4.386-6.186l-0.779-0.168
							L532.636,350.281z"/>
					</g>
				</g>
				<g>
					<g>
						<g>
							<g>
								<path style="fill:#E8505B;" d="M578.556,315.823l0.677,2.76c1.993,8.132,0.77,16.72-3.414,23.972l-30.359,52.622
									c-2.15,3.727-3.719,7.761-4.652,11.962l-7.56,34.029c0,0-23.864,0.809-24.899,0c-1.035-0.81,3.079-23.317,5.82-40.367
									c2.068-12.859,19.276-52.774,27.612-71.623l-5.164-6.354l8.972-1.498L578.556,315.823z"/>
							</g>
						</g>
					</g>
				</g>
			</g>
			<g>
				<g>
					<path style="fill:#263238;" d="M533.248,441.168c0.002,0.034-0.346,0.089-0.98,0.159c-0.633,0.072-1.551,0.148-2.688,0.222
						c-2.272,0.149-5.418,0.259-8.891,0.252c-3.475-0.009-6.617-0.116-8.89-0.227c-1.136-0.056-2.055-0.112-2.69-0.163
						c-0.634-0.051-0.985-0.096-0.984-0.13c0.001-0.035,0.354-0.056,0.99-0.065c0.748,0.001,1.645,0.003,2.694,0.004
						c2.4,0.022,5.477,0.049,8.881,0.08c3.466,0.007,6.603-0.046,8.875-0.105c1.047-0.025,1.944-0.046,2.691-0.063
						C532.892,441.123,533.245,441.134,533.248,441.168z"/>
				</g>
			</g>
			<g>
				<g>
					<path style="fill:#263238;" d="M534.562,434.782c-0.001,0.138-5.739,0.229-12.815,0.203c-7.079-0.026-12.815-0.16-12.814-0.298
						c0.001-0.138,5.738-0.229,12.816-0.202C528.826,434.511,534.563,434.644,534.562,434.782z"/>
				</g>
			</g>
			<g>
				<g>
					<path style="fill:#263238;" d="M574.381,413.421c0.029,0.019-0.155,0.353-0.513,0.939c-0.422,0.674-0.937,1.496-1.543,2.463
						c-1.382,2.17-3.171,4.979-5.15,8.085c-1.967,3.115-3.745,5.931-5.119,8.106c-0.617,0.961-1.141,1.777-1.57,2.446
						c-0.378,0.573-0.602,0.882-0.631,0.864c-0.03-0.018,0.137-0.36,0.464-0.964c0.327-0.604,0.817-1.469,1.435-2.53
						c1.236-2.122,2.992-5.025,4.999-8.19c2.007-3.164,3.884-5.989,5.277-8.012c0.696-1.011,1.269-1.823,1.677-2.376
						C574.113,413.699,574.352,413.402,574.381,413.421z"/>
				</g>
			</g>
			<g>
				<g>
					<path style="fill:#263238;" d="M563.511,439.536c-0.131,0.043-0.651-1.356-1.162-3.125c-0.51-1.769-0.815-3.23-0.681-3.263
						c0.134-0.033,0.654,1.366,1.162,3.125C563.338,438.031,563.642,439.493,563.511,439.536z"/>
				</g>
			</g>
			<g>
				<g>
					<path style="fill:#263238;" d="M565.626,439.471c-0.136,0.023-0.639-2.323-1.122-5.238c-0.484-2.916-0.765-5.298-0.629-5.321
						c0.136-0.023,0.639,2.323,1.123,5.239C565.481,437.066,565.763,439.448,565.626,439.471z"/>
				</g>
			</g>
			<g>
				<g>
					<path style="fill:#263238;" d="M568.405,435.516c-0.139,0.026-0.635-2.032-1.256-4.564c-0.618-2.533-1.128-4.587-0.993-4.628
						c0.129-0.04,0.857,1.961,1.479,4.509C568.26,433.38,568.538,435.492,568.405,435.516z"/>
				</g>
			</g>
			<g>
				<g>
					<path style="fill:#263238;" d="M570.759,430.055c-0.135,0.031-0.641-1.947-1.131-4.417c-0.49-2.471-0.777-4.492-0.641-4.515
						c0.136-0.023,0.643,1.954,1.132,4.417C570.607,428.003,570.894,430.024,570.759,430.055z"/>
				</g>
			</g>
			<g>
				<g>
					<path style="fill:#263238;" d="M573.813,425.524c-0.142,0.019-0.506-1.957-1.07-4.363c-0.557-2.408-1.103-4.342-0.967-4.388
						c0.125-0.044,0.89,1.838,1.454,4.274C573.8,423.481,573.945,425.508,573.813,425.524z"/>
				</g>
			</g>
			<g>
				<g>
					<path style="fill:#263238;" d="M576.527,421.683c-0.134,0.033-0.645-1.558-1.141-3.555c-0.496-1.997-0.79-3.642-0.656-3.676
						c0.134-0.033,0.645,1.558,1.141,3.555C576.368,420.004,576.661,421.65,576.527,421.683z"/>
				</g>
			</g>
			<g>
				<g>
					<path style="fill:#263238;" d="M520.825,434.531c0.06,0.129-2.641,1.504-5.939,3.253c-3.302,1.745-5.958,3.204-6.031,3.082
						c-0.034-0.058,0.586-0.5,1.629-1.148c1.043-0.648,2.512-1.499,4.168-2.376c1.656-0.876,3.185-1.612,4.308-2.109
						C520.082,434.735,520.796,434.47,520.825,434.531z"/>
				</g>
			</g>
			<g>
				<g>
					<path style="fill:#263238;" d="M528.176,434.643c0.033,0.059-0.681,0.531-1.877,1.225c-1.195,0.694-2.874,1.603-4.764,2.538
						c-1.891,0.934-3.634,1.715-4.911,2.243c-1.277,0.528-2.086,0.809-2.113,0.747c-0.028-0.065,0.73-0.46,1.967-1.069
						c1.409-0.691,3.037-1.488,4.835-2.37c1.792-0.893,3.414-1.701,4.819-2.401C527.367,434.944,528.142,434.581,528.176,434.643z"
						/>
				</g>
			</g>
			<g>
				<g>
					<path style="fill:#263238;" d="M533.785,434.641c0.084,0.106-1.975,1.884-4.687,3.855c-2.71,1.975-5.035,3.388-5.109,3.275
						c-0.078-0.117,2.114-1.712,4.815-3.68C531.505,436.127,533.697,434.53,533.785,434.641z"/>
				</g>
			</g>
			<g>
				<g>
					<path style="fill:#263238;" d="M534.393,438.16c0.084,0.11-0.848,0.968-2.081,1.917c-1.234,0.949-2.302,1.63-2.387,1.52
						c-0.084-0.109,0.848-0.967,2.082-1.917C533.24,438.731,534.309,438.05,534.393,438.16z"/>
				</g>
			</g>
			<g>
				<g>
					<path style="fill:#263238;" d="M514.293,434.407c0.071,0.119-1.312,1.074-3.088,2.133c-1.776,1.059-3.273,1.822-3.344,1.703
						c-0.071-0.119,1.311-1.073,3.088-2.133C512.725,435.051,514.222,434.288,514.293,434.407z"/>
				</g>
			</g>
			<g>
				<g>
					<path style="fill:#263238;" d="M541.124,329.034c0.065,0.029-0.44,1.293-1.269,3.327c-0.829,2.034-1.971,4.844-3.186,7.966
						c-1.214,3.124-2.27,5.967-3.033,8.027c-0.763,2.06-1.244,3.332-1.312,3.31c-0.033-0.011,0.044-0.344,0.211-0.936
						c0.166-0.593,0.427-1.444,0.767-2.49c0.679-2.093,1.685-4.962,2.901-8.093c1.218-3.129,2.414-5.924,3.328-7.925
						c0.457-1.001,0.839-1.805,1.117-2.354C540.924,329.317,541.092,329.02,541.124,329.034z"/>
				</g>
			</g>
			<g>
				<g>
					<path style="fill:#263238;" d="M538.628,417.26c-0.017-0.002-0.003-0.205,0.041-0.59c0.056-0.438,0.127-0.995,0.214-1.681
						c0.088-0.732,0.221-1.623,0.446-2.645c0.213-1.024,0.415-2.201,0.776-3.469c0.168-0.639,0.343-1.306,0.525-2
						c0.195-0.692,0.438-1.4,0.668-2.14c0.439-1.487,1.051-3.027,1.651-4.662c1.294-3.235,2.894-6.719,4.779-10.268
						c3.806-7.086,7.88-13.123,10.869-17.445c1.498-2.161,2.735-3.891,3.601-5.079c0.411-0.556,0.745-1.007,1.007-1.361
						c0.235-0.308,0.365-0.465,0.379-0.455c0.014,0.01-0.088,0.186-0.296,0.513c-0.242,0.368-0.55,0.837-0.93,1.415
						c-0.855,1.274-2.031,3.026-3.468,5.167c-2.911,4.37-6.929,10.425-10.72,17.482c-1.877,3.535-3.481,6.995-4.792,10.203
						c-0.609,1.622-1.232,3.148-1.685,4.621c-0.237,0.733-0.488,1.435-0.692,2.12c-0.192,0.688-0.377,1.349-0.553,1.981
						c-0.381,1.256-0.606,2.421-0.844,3.435c-0.25,1.012-0.41,1.895-0.527,2.62c-0.125,0.68-0.227,1.23-0.306,1.663
						C538.693,417.063,538.645,417.262,538.628,417.26z"/>
				</g>
			</g>
		</g>
		<g>
			<path style="fill:#FFFFFF;" d="M568.399,253.169l-23.488,1.998c0,0-7.047,0.163-14.677,18.037l-5.522,17.7l9.93,2.116
				l0.022,0.972l1.952,28.832l42.391-6.866c0.096-3.661-1.963-8.996-3.523-14.014c1.582-3.956,8.278-21.193,8.265-29.495
				C583.722,254.702,568.399,253.169,568.399,253.169"/>
		</g>
		<g>
			<g>
				<path style="fill:#263238;" d="M578.551,418.218c0.03,0.017-0.125,0.362-0.432,0.973c-0.306,0.612-0.771,1.484-1.361,2.553
					c-1.179,2.139-2.88,5.053-4.797,8.245c-1.89,3.137-3.599,5.973-4.921,8.166c-0.588,0.97-1.088,1.794-1.498,2.471
					c-0.359,0.581-0.572,0.894-0.602,0.877c-0.03-0.017,0.125-0.362,0.432-0.973c0.306-0.611,0.771-1.483,1.361-2.552
					c1.179-2.139,2.88-5.053,4.798-8.246c1.89-3.136,3.599-5.972,4.92-8.164c0.588-0.97,1.088-1.795,1.498-2.471
					C578.308,418.515,578.521,418.202,578.551,418.218z"/>
			</g>
		</g>
		<g>
			<g>
				<path style="fill:#FFFFFF;" d="M572.981,295.561c0.034,0.129-1.428,0.619-3.306,0.868c-1.878,0.254-3.417,0.166-3.418,0.032
					c-0.003-0.142,1.507-0.278,3.352-0.528C571.453,295.689,572.946,295.423,572.981,295.561z"/>
			</g>
		</g>
		<g>
			<g>
				<path style="fill:#455A64;" d="M536.723,294.154l-0.487,31.287l12.702-71.264c-4.219-0.749-12.089,2.575-15.047,6.786
					c-2.116,2.515-3.281,8.317-9.179,25.776l-3.622,11.848l-14.675-16.07l-9.9,8.94c0,0,17.069,27.87,24.192,29.414
					C530.414,322.975,536.723,294.154,536.723,294.154"/>
			</g>
			<g>
				<g>
					<path style="fill:#263238;" d="M538.753,265.199c0.034,0.007-0.014,0.441-0.13,1.219c-0.136,0.878-0.306,1.981-0.509,3.293
						c-0.434,2.779-1.006,6.621-1.533,10.879c-0.525,4.259-0.905,8.126-1.16,10.927c-0.122,1.322-0.225,2.433-0.307,3.318
						c-0.077,0.783-0.136,1.216-0.171,1.214c-0.034-0.002-0.041-0.438-0.024-1.226c0.016-0.788,0.065-1.927,0.148-3.333
						c0.165-2.812,0.49-6.693,1.016-10.961c0.528-4.267,1.157-8.109,1.681-10.877c0.261-1.384,0.49-2.501,0.667-3.269
						C538.606,265.614,538.719,265.192,538.753,265.199z"/>
				</g>
			</g>
			<g>
				<g>
					<path style="fill:#FFFFFF;" d="M535.461,263.825c-0.054-0.138,1.921-0.973,4.154-2.356c2.241-1.371,3.876-2.757,3.975-2.647
						c0.091,0.09-1.423,1.671-3.713,3.073C537.595,263.307,535.5,263.947,535.461,263.825z"/>
				</g>
			</g>
			<g>
				<g>
					<path style="fill:#FFFFFF;" d="M531.397,284.461c-0.14,0.029-0.579-1.604-1.226-3.578c-0.641-1.976-1.249-3.554-1.119-3.613
						c0.12-0.057,0.943,1.45,1.594,3.458C531.303,282.733,531.528,284.436,531.397,284.461z"/>
				</g>
			</g>
			<g>
				<g>
					<path style="fill:#FFFFFF;" d="M541.702,273.204c0.132,0.006,0.133,1.886-0.297,4.156c-0.423,2.272-1.107,4.023-1.232,3.981
						c-0.137-0.043,0.324-1.836,0.74-4.073C541.337,275.033,541.558,273.194,541.702,273.204z"/>
				</g>
			</g>
			<g>
				<g>
					<path style="fill:#FFFFFF;" d="M527.412,300.476c0.14,0.03-0.099,1.662-0.306,3.678c-0.212,2.016-0.314,3.662-0.456,3.662
						c-0.134,0.002-0.257-1.667-0.041-3.714C526.818,302.056,527.281,300.447,527.412,300.476z"/>
				</g>
			</g>
			<g>
				<g>
					<path style="fill:#FFFFFF;" d="M508.635,300.231c-0.108,0.076-1.424-1.643-2.656-4.003c-1.239-2.357-1.902-4.418-1.779-4.463
						c0.135-0.052,0.998,1.904,2.222,4.231C507.638,298.326,508.755,300.15,508.635,300.231z"/>
				</g>
			</g>
			<g>
				<g>
					<path style="fill:#FFFFFF;" d="M519.381,300.967c0.072,0.113-1.11,0.975-2.743,1.717c-1.632,0.747-3.057,1.074-3.095,0.946
						c-0.043-0.136,1.288-0.668,2.887-1.401C518.031,301.501,519.306,300.845,519.381,300.967z"/>
				</g>
			</g>
		</g>
		<g>
			<g>
				<polygon style="fill:#455A64;" points="570.244,310.884 577.594,398.247 599.728,396.158 578.712,304.421 581.279,279.792 				
					"/>
			</g>
			<g>
				<g>
					<path style="fill:#263238;" d="M577.594,398.249c-0.138,0.011-1.763-19.371-3.63-43.285
						c-1.867-23.922-3.269-43.317-3.131-43.328c0.138-0.011,1.763,19.367,3.63,43.289
						C576.33,378.839,577.732,398.238,577.594,398.249z"/>
				</g>
			</g>
			<g>
				<g>
					<path style="fill:#FFFFFF;" d="M575.459,312.903c-0.127-0.053,0.292-1.343,0.936-2.88c0.645-1.538,1.27-2.74,1.398-2.687
						c0.127,0.053-0.292,1.343-0.936,2.88C576.212,311.753,575.586,312.956,575.459,312.903z"/>
				</g>
			</g>
			<g>
				<g>
					<path style="fill:#FFFFFF;" d="M581.568,325.896c-0.115,0.09-1.222-1.182-2.766-2.553c-1.537-1.38-2.926-2.336-2.849-2.46
						c0.064-0.114,1.604,0.672,3.183,2.087C580.719,324.377,581.674,325.82,581.568,325.896z"/>
				</g>
			</g>
			<g>
				<g>
					<path style="fill:#FFFFFF;" d="M580.223,343.431c-0.12-0.082,0.649-1.364,1.383-3.039c0.744-1.671,1.174-3.103,1.316-3.069
						c0.129,0.025-0.092,1.549-0.858,3.271C581.306,342.32,580.328,343.509,580.223,343.431z"/>
				</g>
			</g>
			<g>
				<g>
					<path style="fill:#FFFFFF;" d="M584.986,357.503c-0.091,0.104-1.458-0.932-3.054-2.314c-1.597-1.383-2.817-2.588-2.727-2.693
						c0.09-0.104,1.458,0.932,3.054,2.314C583.856,356.193,585.076,357.398,584.986,357.503z"/>
				</g>
			</g>
			<g>
				<g>
					<path style="fill:#FFFFFF;" d="M589.012,367.162c-0.138-0.001-0.238-1.892-0.223-4.222c0.015-2.332,0.139-4.22,0.277-4.22
						c0.138,0.001,0.238,1.891,0.223,4.223C589.274,365.274,589.15,367.163,589.012,367.162z"/>
				</g>
			</g>
			<g>
				<g>
					<path style="fill:#FFFFFF;" d="M581.895,373.724c-0.143,0.002-0.267-1.51-0.53-3.352c-0.257-1.844-0.557-3.33-0.419-3.368
						c0.128-0.037,0.652,1.418,0.914,3.298C582.129,372.181,582.028,373.725,581.895,373.724z"/>
				</g>
			</g>
			<g>
				<g>
					<path style="fill:#FFFFFF;" d="M589.228,382.081c-0.02,0.137-1.437,0.039-3.164-0.218c-1.727-0.257-3.111-0.576-3.09-0.713
						c0.02-0.137,1.437-0.039,3.164,0.218C587.865,381.625,589.248,381.944,589.228,382.081z"/>
				</g>
			</g>
			<g>
				<g>
					<path style="fill:#FFFFFF;" d="M588.04,393.196c-0.115-0.076,0.686-1.49,1.789-3.158c1.103-1.668,2.091-2.958,2.206-2.882
						c0.115,0.076-0.685,1.49-1.789,3.158C589.143,391.982,588.155,393.273,588.04,393.196z"/>
				</g>
			</g>
		</g>
		<path style="fill:#263238;" d="M537.616,321.478l-37.181-50.656c2.178-1.686,4.243-3.549,6.161-5.601
			c9.341-9.998,14.231-23.036,13.767-36.712c-0.463-13.675-6.225-26.352-16.223-35.693c-9.998-9.342-23.039-14.23-36.711-13.768
			c-13.676,0.464-26.352,6.226-35.694,16.224c-9.342,9.998-14.232,23.036-13.767,36.711c0.896,26.38,21.689,47.484,47.446,49.355
			c1.806,0.131,3.639,0.169,5.489,0.105c7.571-0.257,14.833-2.144,21.396-5.469l37.572,51.188c1.57,2.139,4.577,2.6,6.716,1.03l0,0
			C538.725,326.623,539.186,323.617,537.616,321.478z M470.576,271.841c-1.505,0.052-2.99,0.022-4.461-0.085
			c-20.924-1.523-37.819-18.668-38.547-40.098c-0.778-22.936,17.249-42.228,40.184-43.007c1.515-0.051,3.018-0.022,4.508,0.086
			c9.443,0.686,18.303,4.543,25.318,11.099c8.123,7.59,12.804,17.889,13.181,28.999c0.377,11.111-3.595,21.703-11.184,29.827
			C491.985,266.784,481.687,271.464,470.576,271.841z"/>
		<g>
			<g>
				<path style="fill:#455A64;" d="M522.852,293.933l-4.407,15.043c0,0,23.075,8.393,35.573,8.239
					c11.709-0.144,15.064-1.471,19.185-10.928c4.121-9.457,8.796-20.318,9.776-26.575c0,0,6.61-28.795-18.605-26.224l-0.682,22.524
					c0,0-2.793,9.23-2.994,9.764c-1.882,4.983-4.32,12.276-6.679,13.158C551.659,299.816,522.852,293.933,522.852,293.933z"/>
			</g>
			<g>
				<g>
					<path style="fill:#263238;" d="M559.067,305.986c-0.111,0.076-1.285-1.447-2.475-3.491c-1.194-2.043-1.943-3.814-1.821-3.873
						c0.127-0.063,1.069,1.595,2.253,3.621C558.204,304.271,559.184,305.907,559.067,305.986z"/>
				</g>
			</g>
			<g>
				<g>
					<path style="fill:#263238;" d="M561.434,303.632c-0.085,0.109-1.586-0.912-3.352-2.281c-1.767-1.369-3.131-2.568-3.046-2.677
						c0.085-0.109,1.585,0.912,3.352,2.281C560.155,302.324,561.519,303.522,561.434,303.632z"/>
				</g>
			</g>
			<g>
				<g>
					<path style="fill:#263238;" d="M569.266,262.571c0.128,0.053-1.06,3.209-2.652,7.048c-1.593,3.841-2.987,6.91-3.115,6.857
						c-0.128-0.053,1.06-3.208,2.653-7.049C567.744,265.588,569.139,262.518,569.266,262.571z"/>
				</g>
			</g>
			<g>
				<g>
					<path style="fill:#263238;" d="M581.971,284.001c0.032,0.012-0.085,0.42-0.326,1.147c-0.284,0.821-0.638,1.847-1.059,3.065
						c-0.915,2.58-2.204,6.137-3.73,10.028c-1.528,3.892-3.036,7.368-4.22,9.841c-0.59,1.237-1.087,2.228-1.453,2.902
						c-0.363,0.675-0.578,1.041-0.609,1.025c-0.031-0.015,0.125-0.41,0.434-1.111c0.35-0.794,0.787-1.786,1.307-2.964
						c1.099-2.504,2.55-5.991,4.076-9.877c1.489-3.842,2.836-7.317,3.864-9.969c0.5-1.274,0.911-2.303,1.208-3.009
						C581.759,284.374,581.938,283.989,581.971,284.001z"/>
				</g>
			</g>
			<g>
				<g>
					<path style="fill:#263238;" d="M544.91,298.262c-0.025,0.136-5.049-0.662-11.221-1.782c-6.174-1.12-11.158-2.139-11.133-2.275
						s5.048,0.662,11.222,1.782C539.951,297.108,544.935,298.126,544.91,298.262z"/>
				</g>
			</g>
			<g>
				<g>
					<path style="fill:#FFFFFF;" d="M571.077,284.525c-0.138-0.002-0.225-1.823-0.195-4.068c0.031-2.245,0.167-4.063,0.306-4.062
						c0.138,0.002,0.225,1.823,0.195,4.068C571.352,282.708,571.215,284.526,571.077,284.525z"/>
				</g>
			</g>
			<g>
				<g>
					<path style="fill:#FFFFFF;" d="M562.094,312.196c-0.121-0.078,0.606-1.376,1.325-3.049c0.728-1.67,1.177-3.088,1.317-3.053
						c0.129,0.027-0.111,1.536-0.858,3.252C563.138,311.064,562.202,312.271,562.094,312.196z"/>
				</g>
			</g>
			<g>
				<g>
					<path style="fill:#FFFFFF;" d="M549.883,311.418c-0.131,0.056-0.933-1.555-2.004-3.489c-1.066-1.938-2.002-3.475-1.884-3.556
						c0.109-0.077,1.242,1.35,2.322,3.314C549.402,309.647,550.006,311.367,549.883,311.418z"/>
				</g>
			</g>
			<g>
				<g>
					<path style="fill:#FFFFFF;" d="M533.027,303.632c0.051,0.129-1.412,0.829-3.267,1.565c-1.856,0.736-3.401,1.229-3.452,1.1
						c-0.051-0.128,1.412-0.829,3.267-1.565C531.431,303.996,532.976,303.504,533.027,303.632z"/>
				</g>
			</g>
			<g>
				<g>
					<path style="fill:#FFFFFF;" d="M580.347,268.295c-0.11,0.099-1.22-1.039-2.821-2.131c-1.593-1.105-3.052-1.735-2.999-1.873
						c0.036-0.123,1.628,0.315,3.283,1.461C579.471,266.888,580.45,268.217,580.347,268.295z"/>
				</g>
			</g>
			<g>
				<g>
					<path style="fill:#FFFFFF;" d="M573.148,293.16c0.034,0.129-1.723,0.681-3.969,0.962c-2.246,0.287-4.084,0.189-4.084,0.056
						c-0.002-0.143,1.808-0.269,4.021-0.553C571.329,293.349,573.114,293.021,573.148,293.16z"/>
				</g>
			</g>
		</g>
		<g>
			<g>
				<path style="fill:#E8505B;" d="M570.779,216.072c1.184-2.53,4.429-3.701,7.118-2.946c2.689,0.754,4.738,3.109,5.628,5.757
					c0.89,2.647,0.747,5.546,0.151,8.275c-0.434,1.986-1.025,4.312,0.3,5.853c1.231,1.432,3.527,1.398,4.949,2.641
					c1.411,1.233,1.491,3.687,0.164,5.01c-1.327,1.323-3.781,1.234-5.009-0.18c0.015,1.394,0.754,2.66,1.194,3.983
					c0.439,1.323,0.489,2.993-0.579,3.888c-0.793,0.665-1.982,0.669-2.941,0.281c-0.959-0.389-1.742-1.106-2.502-1.809
					c0.43,1.442,0.5,3.033-0.057,4.431s-1.806,2.562-3.296,2.78c-1.861,0.272-3.7-0.979-4.596-2.632
					c-0.896-1.653-1.01-3.619-0.876-5.495c0.209-2.921,0.969-5.775,1.326-8.682c0.357-2.907,0.278-5.988-1.083-8.582"/>
			</g>
			<g>
				<g>
					<path style="fill:#E8505B;" d="M587.728,233.116c0.005,0.009-0.122,0.077-0.379,0.046c-0.248-0.033-0.636-0.203-0.882-0.647
						c-0.272-0.432-0.162-1.201,0.413-1.648c0.543-0.497,1.575-0.483,2.247,0.128c0.708,0.596,0.951,1.691,0.678,2.684
						c-0.135,0.499-0.398,0.996-0.817,1.382c-0.42,0.388-0.996,0.617-1.585,0.651c-0.59,0.038-1.199-0.092-1.744-0.385
						c-0.548-0.299-0.996-0.761-1.325-1.298c-0.665-1.081-0.826-2.439-0.647-3.716c0.374-2.571,1.611-4.727,1.584-6.882
						c0.056-2.141-0.657-4.023-1.499-5.398c-0.863-1.382-1.859-2.285-2.597-2.818c-0.739-0.541-1.211-0.748-1.186-0.797
						c0.007-0.016,0.128,0.029,0.352,0.128c0.229,0.09,0.547,0.262,0.945,0.509c0.788,0.495,1.853,1.383,2.786,2.788
						c0.91,1.398,1.694,3.343,1.662,5.597c0.04,2.293-1.211,4.513-1.549,6.938c-0.169,1.207-0.015,2.433,0.57,3.397
						c0.556,0.976,1.606,1.547,2.622,1.478c1.03-0.021,1.802-0.806,2.031-1.684c0.256-0.867,0.055-1.808-0.512-2.307
						c-0.56-0.524-1.373-0.561-1.84-0.173c-0.493,0.36-0.611,0.965-0.411,1.341c0.184,0.392,0.512,0.576,0.729,0.635
						C587.594,233.122,587.725,233.093,587.728,233.116z"/>
				</g>
			</g>
			<g>
				<g>
					<g>
						<g>
							<path style="fill:#FFBE9D;" d="M564.593,254.052l1.335-30.52l-12.119-9.181l-11.017,5.386c0,0-0.368,13.832,0,19.831
								c0.367,5.998,6.415,6.639,6.415,6.639s-0.141,3.515-0.28,7.209c-0.168,4.47,3.434,8.175,7.907,8.132l0,0
								C561.002,261.508,564.41,258.215,564.593,254.052z"/>
						</g>
					</g>
				</g>
				<g>
					<g>
						<g>
							<g>
								<path style="fill:#263238;" d="M543.991,229.82c0,0.424,0.344,0.768,0.768,0.768c0.423,0,0.768-0.343,0.768-0.768
									s-0.344-0.768-0.768-0.768C544.336,229.052,543.991,229.396,543.991,229.82z"/>
							</g>
						</g>
					</g>
					<g>
						<g>
							<g>
								<g>
									<path style="fill:#263238;" d="M543.248,228.983c0.1,0.099,0.666-0.383,1.493-0.427c0.826-0.057,1.447,0.353,1.533,0.242
										c0.042-0.049-0.06-0.232-0.332-0.418c-0.266-0.185-0.717-0.355-1.232-0.323c-0.514,0.032-0.941,0.254-1.183,0.471
										C543.28,228.745,543.2,228.939,543.248,228.983z"/>
								</g>
							</g>
						</g>
					</g>
				</g>
				<g>
					<g>
						<g>
							<g>
								<path style="fill:#263238;" d="M552.888,229.82c0,0.424,0.343,0.768,0.768,0.768c0.424,0,0.768-0.343,0.768-0.768
									s-0.343-0.768-0.768-0.768C553.232,229.052,552.888,229.396,552.888,229.82z"/>
							</g>
						</g>
					</g>
					<g>
						<g>
							<g>
								<g>
									<path style="fill:#263238;" d="M552.411,228.983c0.099,0.099,0.666-0.383,1.493-0.427c0.826-0.057,1.447,0.353,1.533,0.242
										c0.042-0.049-0.06-0.232-0.332-0.418c-0.266-0.185-0.717-0.355-1.232-0.323c-0.514,0.032-0.941,0.254-1.183,0.471
										C552.443,228.745,552.363,228.939,552.411,228.983z"/>
								</g>
							</g>
						</g>
					</g>
				</g>
				<g>
					<g>
						<g>
							<path style="fill:#FFFFFF;" d="M552.159,236.746c-1.028,0.509-2.851,1.243-3.996,1.376c0,0,1.019,1.455,2.74,0.777
								C552.686,238.198,552.159,236.746,552.159,236.746z"/>
						</g>
					</g>
				</g>
				<g>
					<g>
						<g>
							<path style="fill:#EB996E;" d="M549.204,246.206c0,0,4.039,0.045,7.947-2.684c0,0-1.802,4.404-7.816,4.156L549.204,246.206z"
								/>
						</g>
					</g>
				</g>
				<g>
					<g>
						<g>
							<path style="fill:#E8505B;" d="M583.379,240.776c-0.532,0.03-1.324-0.057-2.174-0.492c-0.856-0.419-1.702-1.212-2.37-2.298
								c-0.679-1.076-1.207-2.409-1.772-3.8c-1.12-2.788-1.966-5.376-2.538-7.262c-0.09-0.298-0.172-0.571-0.25-0.832
								c-0.051-0.321-0.102-0.608-0.158-0.818c-3.273-12.509-14.267-14.841-16.442-14.841c-2.333,0-6.413-1.283-12.361,4.898
								c-0.997,1.037-1.718,2.085-2.257,3.115c-1.533,1.924-2.343,4.049-2.651,5.649c-0.362,1.827-0.209,2.982-0.139,2.977
								c0.113,0.005,0.131-1.133,0.598-2.868c0.229-0.87,0.6-1.895,1.15-2.953c-0.868,3.873,0.61,6.909,0.61,6.909l2.134-0.587
								l7.639-2.599c-0.694-2.366,0.328-5.304,0.906-6.673l0.057-0.053c1.749,8.979,10.099,9.807,10.099,9.807l1.412,19.645
								c10.155-2.17,9.924-15.759,9.86-18.52c0.46,1.557,1.059,3.343,1.812,5.216c0.57,1.396,1.116,2.747,1.858,3.871
								c0.724,1.127,1.686,1.974,2.635,2.377c0.942,0.423,1.811,0.451,2.368,0.35c0.564-0.108,0.831-0.289,0.818-0.315
								C584.205,240.632,583.914,240.739,583.379,240.776z"/>
						</g>
					</g>
				</g>
				<g>
					<g>
						<g>
							<g>
								<path style="fill:#263238;" d="M549.43,235.964c0.001-0.046-0.516-0.107-1.353-0.169c-0.21-0.01-0.418-0.041-0.462-0.197
									c-0.057-0.161,0.024-0.406,0.117-0.667c0.179-0.543,0.368-1.114,0.567-1.713c0.393-1.219,0.731-2.327,0.96-3.135
									c0.229-0.808,0.348-1.314,0.304-1.329c-0.043-0.014-0.242,0.467-0.528,1.256c-0.286,0.789-0.66,1.886-1.053,3.105
									c-0.189,0.602-0.371,1.176-0.542,1.721c-0.071,0.255-0.198,0.545-0.082,0.864c0.062,0.159,0.218,0.267,0.352,0.298
									c0.135,0.035,0.254,0.031,0.359,0.032C548.907,236.032,549.428,236.01,549.43,235.964z"/>
							</g>
						</g>
					</g>
				</g>
				<g>
					<g>
						<g>
							<g>
								<path style="fill:#FFBE9D;" d="M566.565,235.714c-0.036-1-0.039-2.029,0.322-2.962c0.36-0.933,1.163-1.759,2.157-1.863
									c1.145-0.119,2.253,0.832,2.436,1.969c0.182,1.136-0.48,2.32-1.484,2.884c-1.003,0.565-2.274,0.548-3.332,0.093"/>
							</g>
						</g>
					</g>
					<g>
						<g>
							<g>
								<g>
									<path style="fill:#EB996E;" d="M568.314,234.841c0.037-0.066,0.325,0.081,0.748-0.048c0.426-0.103,0.863-0.588,0.899-1.275
										c0.024-0.336-0.049-0.648-0.214-0.799c-0.168-0.161-0.439-0.207-0.654-0.195c-0.45,0.039-0.766,0.159-0.792,0.083
										c-0.019-0.05,0.203-0.28,0.739-0.432c0.267-0.06,0.654-0.076,1.007,0.195c0.353,0.289,0.442,0.768,0.413,1.182
										c-0.027,0.428-0.19,0.833-0.448,1.121c-0.254,0.293-0.602,0.441-0.883,0.468
										C568.537,235.198,568.265,234.877,568.314,234.841z"/>
								</g>
							</g>
						</g>
					</g>
				</g>
				<g>
					<g>
						<path style="fill:#263238;" d="M570.113,235.658c0.031-0.046,0.451,0.31,0.444,1.117c-0.007,0.386-0.164,0.884-0.565,1.251
							c-0.387,0.364-0.986,0.601-1.616,0.502c-0.629-0.107-1.121-0.523-1.371-0.992c-0.263-0.477-0.252-0.999-0.135-1.367
							c0.251-0.766,0.763-0.97,0.778-0.916c0.056,0.057-0.316,0.351-0.434,0.999c-0.055,0.317-0.026,0.708,0.192,1.056
							c0.209,0.347,0.598,0.651,1.051,0.726c0.454,0.073,0.919-0.09,1.228-0.352c0.317-0.26,0.47-0.621,0.519-0.939
							C570.3,236.092,570.041,235.694,570.113,235.658z"/>
					</g>
				</g>
				<g>
					<g>
						<path style="fill:#E8505B;" d="M566.592,231.526c0.013,0.019-0.237,0.233-0.773,0.476c-0.533,0.243-1.371,0.484-2.432,0.494
							c-1.055,0.004-2.329-0.24-3.577-0.893c-1.25-0.649-2.413-1.719-3.333-3.036c-1.848-2.673-2.364-5.619-2.656-7.643
							c-0.137-1.027-0.209-1.861-0.248-2.438c-0.038-0.577-0.041-0.897-0.007-0.901c0.077-0.01,0.252,1.259,0.604,3.284
							c0.378,1.998,0.946,4.854,2.717,7.412c0.881,1.262,1.977,2.284,3.141,2.916c1.164,0.637,2.362,0.906,3.365,0.946
							C565.435,232.214,566.559,231.422,566.592,231.526z"/>
					</g>
				</g>
			</g>
			<g>
				<g>
					<path style="fill:#263238;" d="M573.32,222.933c-0.148,0.038-0.596-1.735-1.773-3.61c-1.157-1.887-2.546-3.076-2.447-3.192
						c0.064-0.107,1.659,0.953,2.873,2.928C573.202,221.023,573.445,222.924,573.32,222.933z"/>
				</g>
			</g>
		</g>
		<g>
			<g>
				<g>
					<path style="fill:#FFBE9D;" d="M518.889,307.461l-3.529-0.038c-3.207-0.313-5.004-0.364-5.899-1.217
						c-1.199-1.143,0.449-2.265,0.449-2.265s-2.322-0.796-2.104-2.212c0.148-0.965,1.249-1.074,1.249-1.074
						s-2.048-0.799-2.453-1.652c-0.552-1.164,0.894-1.785,0.894-1.785c-2.793-1.722-2.539-3.424-1.895-3.594
						c0.645-0.17,2.825,0.831,2.825,0.831c1.84,0.526,6.858,2.058,4.998-0.71c-1.86-2.769-2.246-5.597-1.819-6.435
						c0.428-0.838,1.75-0.548,1.915,0.474c0.133,0.827,0.783,2.134,1.311,3.096c0.436,0.794,0.999,1.513,1.674,2.115
						c0.789,0.702,1.484,1.265,2.087,1.73l3.14,3.031L518.889,307.461z"/>
				</g>
			</g>
		</g>
		<path style="fill:#FFBE9D;" d="M496.925,272.231c0.257-0.76,0.883-1.302,1.565-0.945l0,0c0.322,0.356,0.331,0.843,0.225,1.174
			l-2.179,7.095l0.003,0.006l2.064-5.015c0.257-0.76,0.946-1.218,1.42-0.806c0.262,0.228,0.272,0.821,0.167,1.151l-1.882,5.889
			l1.532-3.681c0.32-0.841,0.696-1.065,1.123-0.882c0.422,0.181,0.44,0.808,0.334,1.138l-1.297,4.349
			c0.279,0.834,1.239,3.464,0.316,4.944c-0.047,0.075,0.092,0.319,0.089,0.401l0.438,0.501l-2.893,2.612
			c0,0-2.671-6.754-3.177-8.778c-0.442-1.77-0.039-2.934,0.158-3.544L496.925,272.231z"/>
	</g>
</g>
</svg>
