<?xml version="1.0" encoding="utf-8"?>
<!-- Generator: Adobe Illustrator 27.5.0, SVG Export Plug-In . SVG Version: 6.00 Build 0)  -->
<svg version="1.1" xmlns="http://www.w3.org/2000/svg" xmlns:xlink="http://www.w3.org/1999/xlink" x="0px" y="0px"
	 viewBox="0 0 750 500" style="enable-background:new 0 0 750 500;" xml:space="preserve">
<g id="BACKGROUND">
	<rect style="fill:#DEFFFC;" width="750" height="336.061"/>
	<rect y="336.061" style="fill:#73DED5;" width="750" height="163.939"/>
</g>
<g id="OBJECTS">
	<g>
		<ellipse style="opacity:0.5;fill:#73DED5;" cx="534.554" cy="378.933" rx="162.198" ry="9.429"/>
		<g>
			<rect x="377.009" y="95.303" style="fill:#DEFFFC;" width="302.715" height="117.61"/>
			<g>
				
					<rect x="552.065" y="95.303" transform="matrix(-1 -1.224647e-16 1.224647e-16 -1 1197.6379 291.8834)" style="fill:#FFFFFF;" width="93.508" height="101.277"/>
				
					<rect x="556.455" y="100.994" transform="matrix(-1 -1.224647e-16 1.224647e-16 -1 1197.6378 297.574)" style="fill:#C9F2F0;" width="84.727" height="95.586"/>
				
					<rect x="596.62" y="100.994" transform="matrix(-1 -1.224647e-16 1.224647e-16 -1 1197.6378 297.574)" style="fill:#FFFFFF;" width="4.397" height="95.586"/>
			</g>
			<g>
				
					<rect x="411.159" y="95.303" transform="matrix(-1 -1.224647e-16 1.224647e-16 -1 915.8269 291.8834)" style="fill:#FFFFFF;" width="93.508" height="101.277"/>
				
					<rect x="415.55" y="100.994" transform="matrix(-1 -1.224647e-16 1.224647e-16 -1 915.8269 297.574)" style="fill:#C9F2F0;" width="84.727" height="95.586"/>
				
					<rect x="455.715" y="100.994" transform="matrix(-1 -1.224647e-16 1.224647e-16 -1 915.8269 297.574)" style="fill:#FFFFFF;" width="4.397" height="95.586"/>
			</g>
			<g>
				<g>
					<path style="fill:#B0E8E4;" d="M438.344,95.303c-4.404,32.467-27.076,51.836-57.371,64.313
						c22.468,55.727,28.357,122.599-3.963,173.251V95.303H438.344z"/>
					<path style="fill:#006960;" d="M383.746,161.991h-6.738v-3.232h6.738c0.892,0,1.616,0.724,1.616,1.616l0,0
						C385.362,161.268,384.639,161.991,383.746,161.991z"/>
					<g>
						<path style="fill:#B0E8E4;" d="M417.533,98.555c-0.023,5.549-1.029,11.11-2.746,16.438c-0.46,1.321-0.925,2.644-1.421,3.956
							l-1.678,3.86c-0.627,1.255-1.295,2.491-1.943,3.737l-2.158,3.619l-2.411,3.456l-2.606,3.308l-2.83,3.116
							c-0.993,0.991-2.005,1.962-3.022,2.922c-4.151,3.756-8.809,6.957-13.86,9.256c4.401-3.368,8.499-6.98,12.223-10.929
							c0.897-1.021,1.799-2.03,2.719-3.021l2.569-3.139l2.437-3.237l2.263-3.358l2.133-3.443c0.651-1.183,1.281-2.377,1.952-3.551
							l1.805-3.633c0.525-1.246,1.078-2.482,1.638-3.72C414.667,109.173,416.275,103.951,417.533,98.555z"/>
					</g>
					<g>
						<path style="fill:#B0E8E4;" d="M402.349,96.262c-0.37,4.798-1.284,9.539-2.538,14.186c-0.322,1.159-0.649,2.319-1.005,3.469
							l-1.131,3.432c-0.404,1.135-0.849,2.255-1.272,3.383l-1.37,3.346l-1.517,3.282l-1.611,3.236l-1.746,3.164
							c-0.601,1.044-1.225,2.074-1.857,3.098c-2.551,4.082-5.404,7.978-8.671,11.512c2.245-4.253,4.5-8.43,6.632-12.66
							c0.512-1.069,1.032-2.131,1.575-3.18l1.525-3.199l1.497-3.209l1.426-3.24l1.406-3.249c0.446-1.093,0.87-2.194,1.335-3.28
							l1.306-3.295c0.399-1.112,0.827-2.215,1.26-3.318C399.24,105.298,400.764,100.803,402.349,96.262z"/>
					</g>
					<g>
						<path style="fill:#B0E8E4;" d="M379.501,170.953c2.476,6.439,4.352,13.102,5.823,19.849c0.356,1.689,0.706,3.381,1.026,5.078
							l0.875,5.108c0.263,1.708,0.469,3.423,0.706,5.135l0.581,5.151l0.4,5.169c0.106,1.725,0.199,3.45,0.274,5.176
							c0.083,3.455,0.154,6.91,0.04,10.364c-0.186,6.904-0.8,13.804-2.08,20.583c0.036-6.896-0.009-13.739-0.261-20.571l-0.229-5.12
							l-0.307-5.112l-0.361-5.107l-0.461-5.098l-0.505-5.094l-0.603-5.085l-0.658-5.08c-0.265-1.687-0.5-3.379-0.732-5.074
							C382.005,184.464,380.781,177.729,379.501,170.953z"/>
					</g>
				</g>
				<g>
					<path style="fill:#B0E8E4;" d="M618.389,95.303c4.404,32.467,27.076,51.836,57.371,64.313
						c-22.468,55.727-28.357,122.599,3.963,173.251V95.303H618.389z"/>
					<path style="fill:#006960;" d="M672.986,161.991h6.737v-3.232h-6.737c-0.893,0-1.616,0.724-1.616,1.616l0,0
						C671.37,161.268,672.093,161.991,672.986,161.991z"/>
					<g>
						<path style="fill:#B0E8E4;" d="M639.199,98.555c1.258,5.397,2.865,10.618,4.936,15.636c0.56,1.238,1.113,2.474,1.638,3.72
							l1.805,3.633c0.671,1.174,1.301,2.368,1.952,3.551l2.133,3.443l2.263,3.358l2.437,3.237l2.569,3.139
							c0.92,0.991,1.822,2,2.719,3.021c3.724,3.949,7.822,7.561,12.223,10.929c-5.051-2.298-9.709-5.5-13.86-9.256
							c-1.017-0.96-2.029-1.931-3.023-2.922l-2.83-3.116l-2.606-3.308l-2.411-3.456l-2.158-3.619
							c-0.647-1.246-1.315-2.482-1.942-3.737l-1.679-3.86c-0.496-1.312-0.961-2.635-1.421-3.956
							C640.228,109.664,639.223,104.103,639.199,98.555z"/>
					</g>
					<g>
						<path style="fill:#B0E8E4;" d="M654.383,96.262c1.585,4.541,3.109,9.036,4.759,13.476c0.433,1.103,0.861,2.206,1.26,3.318
							l1.306,3.295c0.465,1.086,0.889,2.187,1.335,3.28l1.406,3.249l1.426,3.24l1.497,3.209l1.525,3.199
							c0.543,1.049,1.063,2.111,1.575,3.18c2.131,4.23,4.386,8.407,6.631,12.66c-3.267-3.534-6.12-7.43-8.671-11.512
							c-0.632-1.024-1.256-2.054-1.857-3.098l-1.746-3.164l-1.611-3.236l-1.517-3.282l-1.37-3.346
							c-0.423-1.128-0.869-2.248-1.272-3.383l-1.131-3.432c-0.356-1.15-0.683-2.31-1.005-3.469
							C655.667,105.801,654.753,101.06,654.383,96.262z"/>
					</g>
					<g>
						<path style="fill:#B0E8E4;" d="M677.232,170.953c-1.28,6.775-2.504,13.511-3.53,20.273c-0.232,1.695-0.466,3.387-0.731,5.074
							l-0.658,5.08l-0.603,5.085l-0.505,5.094l-0.461,5.098l-0.361,5.107l-0.307,5.112l-0.228,5.12
							c-0.252,6.832-0.297,13.676-0.261,20.571c-1.28-6.779-1.894-13.679-2.08-20.583c-0.114-3.454-0.043-6.909,0.04-10.364
							c0.075-1.726,0.169-3.452,0.274-5.176l0.4-5.169l0.581-5.151c0.237-1.712,0.443-3.427,0.706-5.135l0.875-5.108
							c0.321-1.697,0.671-3.389,1.026-5.078C672.88,184.055,674.756,177.392,677.232,170.953z"/>
					</g>
				</g>
			</g>
			<g>
				<g>
					<path style="fill:#006960;" d="M372.356,207.636v137.897c0,6.106,4.95,11.056,11.056,11.056h302.285
						c6.106,0,11.056-4.95,11.056-11.056V207.636c0-6.106-4.95-11.056-11.056-11.056H383.412
						C377.306,196.58,372.356,201.53,372.356,207.636z"/>
				</g>
				<g>
					<path style="fill:#FFDDA3;" d="M377.009,208.808v135.553c0,4.445,3.603,8.049,8.048,8.049h298.994
						c4.445,0,8.049-3.603,8.049-8.049V208.808c0-4.445-3.603-8.049-8.049-8.049H385.057
						C380.612,200.76,377.009,204.363,377.009,208.808z"/>
				</g>
				<g>
					<rect x="411.159" y="200.76" style="fill:#853C2B;" width="93.508" height="101.277"/>
					<rect x="415.55" y="200.76" style="fill:#73DED5;" width="84.727" height="95.587"/>
					<rect x="455.715" y="200.76" style="fill:#853C2B;" width="4.397" height="95.587"/>
				</g>
				<g>
					<rect x="552.065" y="200.76" style="fill:#853C2B;" width="93.508" height="101.277"/>
					<rect x="556.455" y="200.76" style="fill:#73DED5;" width="84.727" height="95.587"/>
					<rect x="596.62" y="200.76" style="fill:#853C2B;" width="4.397" height="95.587"/>
				</g>
				<rect x="377.009" y="321.512" style="fill:#E8C07B;" width="302.715" height="12.405"/>
				<path style="fill:#FFFFFF;" d="M692.1,344.361V208.808c0-4.445-3.603-8.049-8.049-8.049h-4.32
					c-0.002,0.01-0.007,0.03-0.007,0.03V352.38c0,0,0.014,0.022,0.018,0.03h4.31C688.496,352.41,692.1,348.806,692.1,344.361z"/>
				<g>
					<path style="fill:#006960;" d="M692.1,276.585v41.069l-9.15-4.831c-1.985-1.048-3.227-3.108-3.227-5.352v-30.885v-30.885
						c0-2.244,1.242-4.304,3.227-5.352l9.15-4.831V276.585z"/>
				</g>
				
					<line style="fill:none;stroke:#FFFFFF;stroke-width:2;stroke-linecap:round;stroke-miterlimit:10;" x1="686.52" y1="254.967" x2="686.52" y2="301.202"/>
				<g>
					<g>
						
							<text transform="matrix(0 1 -1 0 684.229 208.8082)" style="fill:#006960; font-family:'Montserrat-Medium'; font-size:4.3343px;">00.00</text>
						
							<text transform="matrix(0 1 -1 0 684.229 222.8931)" style="fill:#006960; font-family:'Montserrat-Medium'; font-size:4.3343px;">PM</text>
					</g>
					<g>
						<g>
							<path style="fill:#006960;" d="M684.543,333.9c-0.247,0-0.448-0.2-0.448-0.448s0.2-0.447,0.448-0.447
								c0.247,0,0.447,0.2,0.447,0.447S684.79,333.9,684.543,333.9z"/>
						</g>
						<g>
							<g>
								<path style="fill:#006960;" d="M685.153,334.285c0.363-0.481,0.364-1.182,0-1.665l0.379-0.285
									c0.488,0.651,0.487,1.589,0,2.236L685.153,334.285z"/>
							</g>
							<g>
								<path style="fill:#006960;" d="M685.812,332.042l0.356-0.313c0.839,0.95,0.841,2.487,0.008,3.439l-0.357-0.313
									C686.5,334.078,686.499,332.82,685.812,332.042z"/>
							</g>
							<g>
								<path style="fill:#006960;" d="M686.419,335.415c0.963-1.082,0.963-2.844,0-3.924l0.354-0.315
									c0.559,0.626,0.867,1.435,0.867,2.277s-0.308,1.65-0.867,2.278L686.419,335.415z"/>
							</g>
						</g>
					</g>
					<g>
						
							<rect x="684.39" y="323.331" transform="matrix(-1.836970e-16 1 -1 -1.836970e-16 1008.8514 -360.7982)" style="fill:#006960;" width="0.87" height="1.391"/>
						
							<rect x="684.718" y="324.336" transform="matrix(-1.836970e-16 1 -1 -1.836970e-16 1010.5123 -359.794)" style="fill:#006960;" width="0.869" height="2.047"/>
						
							<rect x="685.095" y="325.292" transform="matrix(-1.836970e-16 1 -1 -1.836970e-16 1012.2216 -358.838)" style="fill:#006960;" width="0.87" height="2.801"/>
						
							<rect x="685.433" y="326.286" transform="matrix(-1.836970e-16 1 -1 -1.836970e-16 1013.8921 -357.8433)" style="fill:#006960;" width="0.87" height="3.476"/>
					</g>
					<g>
						<g>
							<path style="fill:#006960;" d="M683.937,343.089v-4.639c0-0.277,0.225-0.502,0.502-0.502h2.282
								c0.276,0,0.502,0.225,0.502,0.502v4.639c0,0.277-0.225,0.502-0.502,0.502h-2.282
								C684.162,343.591,683.937,343.365,683.937,343.089z M686.837,338.45c0-0.064-0.052-0.116-0.116-0.116h-2.282
								c-0.064,0-0.116,0.052-0.116,0.116v4.639c0,0.064,0.052,0.116,0.116,0.116h2.282c0.064,0,0.116-0.052,0.116-0.116V338.45z"/>
						</g>
						
							<rect x="685.306" y="338.072" transform="matrix(-1.836970e-16 1 -1 -1.836970e-16 1024.6309 -346.5281)" style="fill:#006960;" width="0.547" height="1.958"/>
						
							<rect x="685.306" y="338.944" transform="matrix(-1.836970e-16 1 -1 -1.836970e-16 1025.5027 -345.6563)" style="fill:#006960;" width="0.547" height="1.958"/>
						
							<rect x="685.306" y="339.816" transform="matrix(-1.836970e-16 1 -1 -1.836970e-16 1026.3745 -344.7844)" style="fill:#006960;" width="0.547" height="1.958"/>
						
							<rect x="685.306" y="340.688" transform="matrix(-1.836970e-16 1 -1 -1.836970e-16 1027.2463 -343.9126)" style="fill:#006960;" width="0.547" height="1.958"/>
						
							<rect x="685.306" y="343.361" transform="matrix(-1.836970e-16 1 -1 -1.836970e-16 1029.6666 -341.4923)" style="fill:#006960;" width="0.547" height="1.453"/>
					</g>
				</g>
				<g>
					<path style="fill:#009C8F;" d="M415.054,221.352c1.423-3.116,3.135-6.193,5.717-8.444c2.582-2.251,6.186-3.565,9.499-2.691
						c3.269,0.863,5.734,3.714,6.934,6.875c1.2,3.161,1.315,6.622,1.25,10.002c-0.308,15.977-4.382,31.869-11.798,46.024
						c-1.421,2.712-3.177,5.55-6.037,6.64c-9.432,3.594-10.758-17.513-11.293-22.556
						C408.036,245.031,409.962,232.497,415.054,221.352z"/>
					<path style="fill:#00B8A9;" d="M386.247,243.17c-1.239-5.538-2.047-13.276,3.8-16.529c3.362-1.87,7.761-0.867,10.771,1.529
						c3.01,2.396,4.879,5.926,6.398,9.46c4.463,10.383,6.622,21.749,6.275,33.045c-0.104,3.373-0.959,7.457-4.166,8.511
						c-5.457,1.794-10.301-5.527-12.555-9.375c-4.787-8.173-8.324-17.077-10.448-26.308
						C386.297,243.392,386.271,243.282,386.247,243.17z"/>
					<polygon style="fill:#FFFFFF;" points="434.468,333.918 392.586,333.918 388.586,266.454 438.468,266.454 					"/>
					<path style="fill:#E3E3E3;" d="M388.586,266.454c0,0,9.059,55.528,45.882,67.464h-41.882L388.586,266.454z"/>
				</g>
				<g>
					<rect x="618.712" y="217.748" style="fill:#E8954B;" width="53.722" height="6.704"/>
					<rect x="626.18" y="224.452" style="fill:#E8954B;" width="46.254" height="109.466"/>
					<rect x="626.18" y="224.452" style="opacity:0.5;fill:#E8954B;" width="46.254" height="1.75"/>
					<rect x="629.466" y="227.952" style="fill:#BA6529;" width="42.968" height="27.184"/>
					<rect x="629.466" y="258.198" style="fill:#BA6529;" width="42.968" height="27.184"/>
					<rect x="629.466" y="288.445" style="fill:#BA6529;" width="42.968" height="27.184"/>
					<rect x="653.514" y="232.134" style="fill:#E8954B;" width="18.92" height="3.361"/>
					<rect x="653.514" y="261.763" style="fill:#E8954B;" width="18.92" height="3.361"/>
					<rect x="653.514" y="292.661" style="fill:#E8954B;" width="18.92" height="3.361"/>
				</g>
				<g>
					<defs>
						<path id="SVGID_1_" d="M377.009,208.808v135.553c0,4.445,3.603,8.049,8.048,8.049h298.994c4.445,0,8.049-3.603,8.049-8.049
							V208.808c0-4.445-3.603-8.049-8.049-8.049H385.057C380.612,200.76,377.009,204.363,377.009,208.808z"/>
					</defs>
					<clipPath id="SVGID_00000165913026980182199940000009691774609110384292_">
						<use xlink:href="#SVGID_1_"  style="overflow:visible;"/>
					</clipPath>
					<g style="clip-path:url(#SVGID_00000165913026980182199940000009691774609110384292_);">
						<g>
							<path style="fill:#FFC766;" d="M438.344,95.303c-4.404,32.467-27.076,51.836-57.371,64.313
								c22.468,55.727,28.357,122.599-3.963,173.251V95.303H438.344z"/>
							<path style="fill:#F6416C;" d="M383.746,161.991h-6.738v-3.232h6.738c0.892,0,1.616,0.724,1.616,1.616l0,0
								C385.362,161.268,384.639,161.991,383.746,161.991z"/>
							<g>
								<path style="fill:#FFC766;" d="M417.533,98.555c-0.023,5.549-1.029,11.11-2.746,16.438c-0.46,1.321-0.925,2.644-1.421,3.956
									l-1.678,3.86c-0.627,1.255-1.295,2.491-1.943,3.737l-2.158,3.619l-2.411,3.456l-2.606,3.308l-2.83,3.116
									c-0.993,0.991-2.005,1.962-3.022,2.922c-4.151,3.756-8.809,6.957-13.86,9.256c4.401-3.368,8.499-6.98,12.223-10.929
									c0.897-1.021,1.799-2.03,2.719-3.021l2.569-3.139l2.437-3.237l2.263-3.358l2.133-3.443c0.651-1.183,1.281-2.377,1.952-3.551
									l1.805-3.633c0.525-1.246,1.078-2.482,1.638-3.72C414.667,109.173,416.275,103.951,417.533,98.555z"/>
							</g>
							<g>
								<path style="fill:#FFC766;" d="M402.349,96.262c-0.37,4.798-1.284,9.539-2.538,14.186c-0.322,1.159-0.649,2.319-1.005,3.469
									l-1.131,3.432c-0.404,1.135-0.849,2.255-1.272,3.383l-1.37,3.346l-1.517,3.282l-1.611,3.236l-1.746,3.164
									c-0.601,1.044-1.225,2.074-1.857,3.098c-2.551,4.082-5.404,7.978-8.671,11.512c2.245-4.253,4.5-8.43,6.632-12.66
									c0.512-1.069,1.032-2.131,1.575-3.18l1.525-3.199l1.497-3.209l1.426-3.24l1.406-3.249c0.446-1.093,0.87-2.194,1.335-3.28
									l1.306-3.295c0.399-1.112,0.827-2.215,1.26-3.318C399.24,105.298,400.764,100.803,402.349,96.262z"/>
							</g>
							<g>
								<path style="fill:#FFC766;" d="M379.501,170.953c2.476,6.439,4.352,13.102,5.823,19.849
									c0.356,1.689,0.706,3.381,1.026,5.078l0.875,5.108c0.263,1.708,0.469,3.423,0.706,5.135l0.581,5.151l0.4,5.169
									c0.106,1.725,0.199,3.45,0.274,5.176c0.083,3.455,0.154,6.91,0.04,10.364c-0.186,6.904-0.8,13.804-2.08,20.583
									c0.036-6.896-0.009-13.739-0.261-20.571l-0.229-5.12l-0.307-5.112l-0.361-5.107l-0.461-5.098l-0.505-5.094l-0.603-5.085
									l-0.658-5.08c-0.265-1.687-0.5-3.379-0.732-5.074C382.005,184.464,380.781,177.729,379.501,170.953z"/>
							</g>
						</g>
						<g>
							<path style="fill:#FFC766;" d="M618.389,95.303c4.404,32.467,27.076,51.836,57.371,64.313
								c-22.468,55.727-28.357,122.599,3.963,173.251V95.303H618.389z"/>
							<path style="fill:#F6416C;" d="M672.986,161.991h6.737v-3.232h-6.737c-0.893,0-1.616,0.724-1.616,1.616l0,0
								C671.37,161.268,672.093,161.991,672.986,161.991z"/>
							<g>
								<path style="fill:#FFC766;" d="M639.199,98.555c1.258,5.397,2.865,10.618,4.936,15.636c0.56,1.238,1.113,2.474,1.638,3.72
									l1.805,3.633c0.671,1.174,1.301,2.368,1.952,3.551l2.133,3.443l2.263,3.358l2.437,3.237l2.569,3.139
									c0.92,0.991,1.822,2,2.719,3.021c3.724,3.949,7.822,7.561,12.223,10.929c-5.051-2.298-9.709-5.5-13.86-9.256
									c-1.017-0.96-2.029-1.931-3.023-2.922l-2.83-3.116l-2.606-3.308l-2.411-3.456l-2.158-3.619
									c-0.647-1.246-1.315-2.482-1.942-3.737l-1.679-3.86c-0.496-1.312-0.961-2.635-1.421-3.956
									C640.228,109.664,639.223,104.103,639.199,98.555z"/>
							</g>
							<g>
								<path style="fill:#FFC766;" d="M654.383,96.262c1.585,4.541,3.109,9.036,4.759,13.476c0.433,1.103,0.861,2.206,1.26,3.318
									l1.306,3.295c0.465,1.086,0.889,2.187,1.335,3.28l1.406,3.249l1.426,3.24l1.497,3.209l1.525,3.199
									c0.543,1.049,1.063,2.111,1.575,3.18c2.131,4.23,4.386,8.407,6.631,12.66c-3.267-3.534-6.12-7.43-8.671-11.512
									c-0.632-1.024-1.256-2.054-1.857-3.098l-1.746-3.164l-1.611-3.236l-1.517-3.282l-1.37-3.346
									c-0.423-1.128-0.869-2.248-1.272-3.383l-1.131-3.432c-0.356-1.15-0.683-2.31-1.005-3.469
									C655.667,105.801,654.753,101.06,654.383,96.262z"/>
							</g>
							<g>
								<path style="fill:#FFC766;" d="M677.232,170.953c-1.28,6.775-2.504,13.511-3.53,20.273
									c-0.232,1.695-0.466,3.387-0.731,5.074l-0.658,5.08l-0.603,5.085l-0.505,5.094l-0.461,5.098l-0.361,5.107l-0.307,5.112
									l-0.228,5.12c-0.252,6.832-0.297,13.676-0.261,20.571c-1.28-6.779-1.894-13.679-2.08-20.583
									c-0.114-3.454-0.043-6.909,0.04-10.364c0.075-1.726,0.169-3.452,0.274-5.176l0.4-5.169l0.581-5.151
									c0.237-1.712,0.443-3.427,0.706-5.135l0.875-5.108c0.321-1.697,0.671-3.389,1.026-5.078
									C672.88,184.055,674.756,177.392,677.232,170.953z"/>
							</g>
						</g>
					</g>
				</g>
			</g>
			<g>
				<g>
					<rect x="450.917" y="242.064" style="fill:#E8954B;" width="167.275" height="5.984"/>
					<polygon style="fill:#C4583F;" points="461.765,248.048 446.993,333.918 451.1,333.918 475.834,248.048 					"/>
					<polygon style="fill:#C4583F;" points="607.343,248.048 622.115,333.918 618.008,333.918 593.274,248.048 					"/>
					<polygon style="fill:#C4583F;" points="566.744,261.86 502.364,261.86 492.399,248.048 576.709,248.048 					"/>
				</g>
				<g>
					<rect x="473.883" y="164.084" style="fill:#FFC766;" width="121.341" height="64.022"/>
					<rect x="477.744" y="167.601" style="fill:#F8F3D4;" width="113.619" height="56.988"/>
					<g style="opacity:0.8;">
						<polygon style="fill:#FFFFFF;" points="545.596,167.601 477.744,221.439 477.744,224.589 494.883,224.589 566.704,167.601 
													"/>
						<polygon style="fill:#FFFFFF;" points="589.354,167.601 579.995,167.601 508.174,224.589 517.533,224.589 						"/>
					</g>
					<rect x="524.12" y="228.106" style="fill:#E8954B;" width="20.868" height="13.958"/>
					<path style="fill:#FFC766;" d="M556.544,242.064h-43.98v-2.353c0-2.142,1.736-3.878,3.878-3.878h36.224
						c2.142,0,3.878,1.736,3.878,3.878V242.064z"/>
				</g>
			</g>
			<path style="fill:#C77F41;" d="M377.009,333.918v10.444c0,4.445,3.603,8.049,8.048,8.049h294.666v-18.492H377.009z"/>
			<g>
				<path style="fill:#F6416C;" d="M567.863,307.993H515.82c-1.612,0-2.92-1.307-2.92-2.92v-24.824c0-1.612,1.307-2.92,2.92-2.92
					h52.043c1.612,0,2.92,1.307,2.92,2.92v24.824C570.783,306.685,569.475,307.993,567.863,307.993z"/>
				<polygon style="fill:#FFC766;" points="520.136,281.652 521.399,284.212 524.224,284.623 522.18,286.615 522.662,289.429 
					520.136,288.1 517.609,289.429 518.091,286.615 516.047,284.623 518.872,284.212 				"/>
				<polygon style="fill:#FFC766;" points="530.989,281.652 532.252,284.212 535.077,284.623 533.033,286.615 533.515,289.429 
					530.989,288.1 528.462,289.429 528.944,286.615 526.9,284.623 529.725,284.212 				"/>
				<polygon style="fill:#FFC766;" points="541.841,281.652 543.105,284.212 545.93,284.623 543.886,286.615 544.368,289.429 
					541.841,288.1 539.315,289.429 539.797,286.615 537.753,284.623 540.578,284.212 				"/>
				<polygon style="fill:#FFC766;" points="552.694,281.652 553.958,284.212 556.783,284.623 554.739,286.615 555.221,289.429 
					552.694,288.1 550.168,289.429 550.65,286.615 548.606,284.623 551.431,284.212 				"/>
				<polygon style="fill:#FFADC1;" points="563.547,281.652 564.811,284.212 567.636,284.623 565.592,286.615 566.074,289.429 
					563.547,288.1 561.021,289.429 561.503,286.615 559.459,284.623 562.284,284.212 				"/>
				<rect x="516.047" y="293.816" style="fill:#FFADC1;" width="25.794" height="1.775"/>
				<rect x="516.047" y="297.656" style="fill:#FFADC1;" width="51.589" height="1.775"/>
				<rect x="516.047" y="301.495" style="fill:#FFADC1;" width="51.589" height="1.775"/>
			</g>
			<g>
				<path style="fill:#F6416C;" d="M662.777,177.322h-52.043c-1.612,0-2.92-1.307-2.92-2.92v-24.824c0-1.613,1.307-2.92,2.92-2.92
					h52.043c1.612,0,2.92,1.307,2.92,2.92v24.824C665.697,176.015,664.39,177.322,662.777,177.322z"/>
				<polygon style="fill:#FFC766;" points="615.05,150.982 616.313,153.542 619.138,153.953 617.094,155.945 617.576,158.759 
					615.05,157.43 612.523,158.759 613.005,155.945 610.961,153.953 613.786,153.542 				"/>
				<polygon style="fill:#FFC766;" points="625.903,150.982 627.166,153.542 629.991,153.953 627.947,155.945 628.43,158.759 
					625.903,157.43 623.376,158.759 623.858,155.945 621.814,153.953 624.639,153.542 				"/>
				<polygon style="fill:#FFC766;" points="636.756,150.982 638.019,153.542 640.844,153.953 638.8,155.945 639.282,158.759 
					636.756,157.43 634.229,158.759 634.711,155.945 632.667,153.953 635.492,153.542 				"/>
				<polygon style="fill:#FFC766;" points="647.608,150.982 648.872,153.542 651.697,153.953 649.653,155.945 650.135,158.759 
					647.608,157.43 645.082,158.759 645.564,155.945 643.52,153.953 646.345,153.542 				"/>
				<polygon style="fill:#FFADC1;" points="658.461,150.982 659.725,153.542 662.55,153.953 660.506,155.945 660.988,158.759 
					658.461,157.43 655.935,158.759 656.417,155.945 654.373,153.953 657.198,153.542 				"/>
				<rect x="610.961" y="163.146" style="fill:#FFADC1;" width="25.794" height="1.775"/>
				<rect x="610.961" y="166.986" style="fill:#FFADC1;" width="51.589" height="1.775"/>
				<rect x="610.961" y="170.825" style="fill:#FFADC1;" width="51.589" height="1.775"/>
			</g>
			<g>
				<path style="fill:#F6416C;" d="M571.951,140.767h-52.043c-1.612,0-2.92-1.307-2.92-2.92v-24.824c0-1.613,1.307-2.92,2.92-2.92
					h52.043c1.613,0,2.92,1.307,2.92,2.92v24.824C574.871,139.46,573.564,140.767,571.951,140.767z"/>
				<polygon style="fill:#FFC766;" points="524.224,114.427 525.487,116.987 528.313,117.397 526.268,119.39 526.751,122.203 
					524.224,120.875 521.697,122.203 522.18,119.39 520.136,117.397 522.961,116.987 				"/>
				<polygon style="fill:#FFC766;" points="535.077,114.427 536.34,116.987 539.165,117.397 537.121,119.39 537.604,122.203 
					535.077,120.875 532.55,122.203 533.033,119.39 530.989,117.397 533.814,116.987 				"/>
				<polygon style="fill:#FFC766;" points="545.93,114.427 547.193,116.987 550.018,117.397 547.974,119.39 548.457,122.203 
					545.93,120.875 543.403,122.203 543.886,119.39 541.841,117.397 544.667,116.987 				"/>
				<polygon style="fill:#FFADC1;" points="556.783,114.427 558.046,116.987 560.871,117.397 558.827,119.39 559.31,122.203 
					556.783,120.875 554.256,122.203 554.739,119.39 552.694,117.397 555.519,116.987 				"/>
				<polygon style="fill:#FFADC1;" points="567.636,114.427 568.899,116.987 571.724,117.397 569.68,119.39 570.163,122.203 
					567.636,120.875 565.109,122.203 565.592,119.39 563.547,117.397 566.372,116.987 				"/>
				<rect x="520.136" y="126.591" style="fill:#FFADC1;" width="25.794" height="1.775"/>
				<rect x="520.136" y="130.43" style="fill:#FFADC1;" width="51.589" height="1.775"/>
				<rect x="520.136" y="134.27" style="fill:#FFADC1;" width="51.589" height="1.775"/>
			</g>
			<g>
				<path style="fill:#F6416C;" d="M461.172,182.933h-52.043c-1.612,0-2.92-1.307-2.92-2.92v-24.824c0-1.613,1.307-2.92,2.92-2.92
					h52.043c1.612,0,2.92,1.307,2.92,2.92v24.824C464.091,181.625,462.784,182.933,461.172,182.933z"/>
				<polygon style="fill:#FFC766;" points="413.444,156.592 414.708,159.152 417.533,159.563 415.489,161.555 415.971,164.369 
					413.444,163.04 410.917,164.369 411.4,161.555 409.356,159.563 412.181,159.152 				"/>
				<polygon style="fill:#FFC766;" points="424.297,156.592 425.561,159.152 428.386,159.563 426.341,161.555 426.824,164.369 
					424.297,163.04 421.77,164.369 422.253,161.555 420.209,159.563 423.034,159.152 				"/>
				<polygon style="fill:#FFC766;" points="435.15,156.592 436.414,159.152 439.239,159.563 437.194,161.555 437.677,164.369 
					435.15,163.04 432.623,164.369 433.106,161.555 431.062,159.563 433.887,159.152 				"/>
				<polygon style="fill:#FFC766;" points="446.003,156.592 447.266,159.152 450.092,159.563 448.047,161.555 448.53,164.369 
					446.003,163.04 443.476,164.369 443.959,161.555 441.915,159.563 444.74,159.152 				"/>
				<polygon style="fill:#FFC766;" points="456.856,156.592 458.12,159.152 460.945,159.563 458.9,161.555 459.383,164.369 
					456.856,163.04 454.329,164.369 454.812,161.555 452.768,159.563 455.593,159.152 				"/>
				<rect x="409.356" y="168.756" style="fill:#FFADC1;" width="25.794" height="1.775"/>
				<rect x="409.356" y="172.596" style="fill:#FFADC1;" width="51.589" height="1.775"/>
				<rect x="409.356" y="176.435" style="fill:#FFADC1;" width="51.589" height="1.775"/>
			</g>
		</g>
		<g>
			<ellipse style="opacity:0.5;fill:#73DED5;" cx="250.781" cy="400.118" rx="113.685" ry="9.429"/>
			<g>
				<g>
					<g>
						<path style="fill:#00B8A9;" d="M303.255,401.018H165.358c-6.106,0-11.056-4.95-11.056-11.056V87.677
							c0-6.106,4.95-11.056,11.056-11.056h137.897c6.106,0,11.056,4.95,11.056,11.056v302.285
							C314.311,396.068,309.361,401.018,303.255,401.018z"/>
					</g>
					<g>
						<g>
							<path style="fill:#73DED5;" d="M310.877,108.917c0-0.382-0.135-0.729-0.353-1.008v-0.639h-1.294
								c-0.91,0-1.647,0.737-1.647,1.647v10.472c0,0.91,0.737,1.647,1.647,1.647h1.294v-0.639c0.218-0.279,0.353-0.626,0.353-1.008
								V108.917z"/>
							<path style="fill:#FFFFFF;" d="M310.524,121.036L310.524,121.036c-0.91,0-1.647-0.737-1.647-1.647v-10.472
								c0-0.91,0.737-1.647,1.647-1.647l0,0c0.91,0,1.647,0.738,1.647,1.647v10.472
								C312.171,120.298,311.434,121.036,310.524,121.036z"/>
						</g>
						<g>
							<path style="fill:#73DED5;" d="M310.877,159.27c0-0.382-0.135-0.729-0.353-1.008v-0.639h-1.294
								c-0.91,0-1.647,0.737-1.647,1.647v10.472c0,0.91,0.737,1.647,1.647,1.647h1.294v-0.639c0.218-0.279,0.353-0.626,0.353-1.008
								V159.27z"/>
							<path style="fill:#FFFFFF;" d="M310.524,171.389L310.524,171.389c-0.91,0-1.647-0.737-1.647-1.647V159.27
								c0-0.91,0.737-1.647,1.647-1.647l0,0c0.91,0,1.647,0.737,1.647,1.647v10.472
								C312.171,170.651,311.434,171.389,310.524,171.389z"/>
						</g>
						<g>
							<path style="fill:#73DED5;" d="M310.877,128.593c0-0.382-0.135-0.729-0.353-1.008v-0.639h-1.294
								c-0.91,0-1.647,0.737-1.647,1.647v10.472c0,0.91,0.737,1.647,1.647,1.647h1.294v-0.639c0.218-0.279,0.353-0.626,0.353-1.008
								V128.593z"/>
							<path style="fill:#FFFFFF;" d="M310.524,140.712L310.524,140.712c-0.91,0-1.647-0.737-1.647-1.647v-10.472
								c0-0.91,0.737-1.647,1.647-1.647l0,0c0.91,0,1.647,0.737,1.647,1.647v10.472
								C312.171,139.975,311.434,140.712,310.524,140.712z"/>
						</g>
					</g>
					<g>
						<path style="fill:#006960;" d="M294.038,401.018H156.141c-6.106,0-11.056-4.95-11.056-11.056V87.677
							c0-6.106,4.95-11.056,11.056-11.056h137.897c6.106,0,11.056,4.95,11.056,11.056v302.285
							C305.094,396.068,300.144,401.018,294.038,401.018z"/>
					</g>
					<g>
						<path style="fill:#FFFFFF;" d="M292.866,396.365H157.313c-4.445,0-8.049-3.603-8.049-8.048V89.323
							c0-4.445,3.603-8.049,8.049-8.049h135.553c4.445,0,8.049,3.603,8.049,8.049v298.994
							C300.915,392.762,297.311,396.365,292.866,396.365z"/>
					</g>
					<g>
						<rect x="169.321" y="233.228" style="fill:#B0E8E4;" width="111.536" height="151.915"/>
						
							<ellipse transform="matrix(0.1602 -0.9871 0.9871 0.1602 -25.0413 338.9214)" style="fill:#B0E8E4;" cx="186.657" cy="184.177" rx="17.335" ry="17.335"/>
						<rect x="220.851" y="195.753" style="fill:#B0E8E4;" width="60.007" height="5.759"/>
						<rect x="169.321" y="104.337" style="fill:#B0E8E4;" width="51.529" height="8.47"/>
						<rect x="169.321" y="119.628" style="fill:#B0E8E4;" width="111.536" height="8.471"/>
						<rect x="169.321" y="134.919" style="fill:#B0E8E4;" width="111.536" height="8.471"/>
						<rect x="169.321" y="150.21" style="fill:#B0E8E4;" width="111.536" height="8.471"/>
					</g>
					<path style="fill:#73DED5;" d="M149.294,93.65h151.591l0.03-0.005v-4.323c0-4.445-3.603-8.049-8.049-8.049H157.313
						c-4.445,0-8.049,3.603-8.049,8.049v4.316L149.294,93.65z"/>
					<g>
						<path style="fill:#006960;" d="M225.089,81.274h-41.069l4.831,9.15c1.048,1.985,3.108,3.227,5.352,3.227h30.885h30.885
							c2.244,0,4.304-1.242,5.352-3.227l4.831-9.15H225.089z"/>
					</g>
					
						<line style="fill:none;stroke:#FFFFFF;stroke-width:2;stroke-linecap:round;stroke-miterlimit:10;" x1="201.972" y1="86.854" x2="248.207" y2="86.854"/>
					<g>
						<g>
							
								<text transform="matrix(1 0 0 1 157.3132 89.1444)" style="fill:#006960; font-family:'Montserrat-Medium'; font-size:4.3343px;">00.00</text>
							
								<text transform="matrix(1 0 0 1 171.3981 89.1444)" style="fill:#006960; font-family:'Montserrat-Medium'; font-size:4.3343px;">PM</text>
						</g>
						<g>
							<g>
								<path style="fill:#006960;" d="M282.405,88.831c0,0.247-0.2,0.448-0.448,0.448s-0.448-0.2-0.448-0.448
									c0-0.247,0.2-0.448,0.448-0.448S282.405,88.584,282.405,88.831z"/>
							</g>
							<g>
								<g>
									<path style="fill:#006960;" d="M282.79,88.221c-0.481-0.363-1.182-0.364-1.665,0l-0.285-0.379
										c0.65-0.488,1.589-0.487,2.236,0L282.79,88.221z"/>
								</g>
								<g>
									<path style="fill:#006960;" d="M280.547,87.562l-0.313-0.356c0.95-0.838,2.487-0.841,3.439-0.008l-0.313,0.357
										C282.583,86.874,281.325,86.875,280.547,87.562z"/>
								</g>
								<g>
									<path style="fill:#006960;" d="M283.92,86.955c-1.082-0.963-2.844-0.963-3.924,0l-0.315-0.354
										c0.626-0.559,1.435-0.867,2.277-0.867s1.65,0.308,2.278,0.867L283.92,86.955z"/>
								</g>
							</g>
						</g>
						<g>
							<rect x="272.097" y="87.854" style="fill:#006960;" width="0.87" height="1.391"/>
							<rect x="273.43" y="87.197" style="fill:#006960;" width="0.87" height="2.047"/>
							<rect x="274.762" y="86.444" style="fill:#006960;" width="0.869" height="2.8"/>
							<rect x="276.095" y="85.768" style="fill:#006960;" width="0.87" height="3.476"/>
						</g>
						<g>
							<g>
								<path style="fill:#006960;" d="M291.594,89.437h-4.639c-0.277,0-0.502-0.225-0.502-0.502v-2.282
									c0-0.276,0.225-0.502,0.502-0.502h4.639c0.277,0,0.502,0.225,0.502,0.502v2.282
									C292.096,89.212,291.871,89.437,291.594,89.437z M286.955,86.537c-0.064,0-0.116,0.052-0.116,0.116v2.282
									c0,0.064,0.052,0.116,0.116,0.116h4.639c0.064,0,0.116-0.052,0.116-0.116v-2.282c0-0.064-0.052-0.116-0.116-0.116H286.955z"
									/>
							</g>
							<rect x="287.283" y="86.815" style="fill:#006960;" width="0.546" height="1.958"/>
							<rect x="288.155" y="86.815" style="fill:#006960;" width="0.546" height="1.958"/>
							<rect x="289.027" y="86.815" style="fill:#006960;" width="0.546" height="1.958"/>
							<rect x="289.899" y="86.815" style="fill:#006960;" width="0.547" height="1.958"/>
							<rect x="292.319" y="87.068" style="fill:#006960;" width="0.546" height="1.453"/>
						</g>
					</g>
				</g>
				<g>
					<path style="fill:#FFC766;" d="M244.556,298.479c0,0,4.734-62.41,21.365-81.666h85.222l-12.473,81.666H244.556z"/>
					<path style="opacity:0.5;fill:#FFC766;" d="M265.921,216.813c-16.631,19.257-21.365,81.666-21.365,81.666h76.466
						C251.462,272.445,265.921,216.813,265.921,216.813z"/>
					<path style="fill:#E8954B;" d="M351.143,216.813c0,0-23.371-6.012-30.12,81.666h17.647L351.143,216.813z"/>
					<path style="fill:#FFC766;" d="M293.67,318.262h-78.422c-5.463,0-9.891-4.428-9.891-9.891v0c0-5.463,4.428-9.891,9.891-9.891
						h78.422V318.262z"/>
					<path style="fill:#E8954B;" d="M331.611,318.262h-49.403c-5.463,0-9.891-4.428-9.891-9.891v0c0-5.463,4.428-9.891,9.891-9.891
						h56.462v12.724C338.67,315.102,335.509,318.262,331.611,318.262z"/>
					<polygon style="fill:#853C2B;" points="261.234,318.262 247.529,373.63 251.367,373.63 272.529,318.262 					"/>
					<polygon style="fill:#853C2B;" points="331.215,318.262 344.92,373.63 341.082,373.63 319.921,318.262 					"/>
					<polygon style="fill:#C4583F;" points="218.317,318.262 204.611,373.63 208.449,373.63 229.611,318.262 					"/>
					<polygon style="fill:#C4583F;" points="284.59,318.262 298.295,373.63 294.457,373.63 273.296,318.262 					"/>
				</g>
				<path style="fill:#CFFFFC;" d="M364.465,385.143H183.171v-1.961c0-5.275,4.276-9.551,9.551-9.551h162.191
					c5.275,0,9.551,4.276,9.551,9.551V385.143z"/>
			</g>
			<g>
				<ellipse style="opacity:0.5;fill:#73DED5;" cx="109.21" cy="429.848" rx="55.962" ry="15.159"/>
				<path style="fill:#00B8A9;" d="M67.263,239.006c0,0-9.15,20.001,2.636,42.067c0,0,7.961,97.921,6.793,130.045
					c0,0,5.006,3.708,13.566,1.328l7.196-89.892c0,0,8.71,90.436,9.626,99.444c0,0,9.72,1.76,14.141-2.498
					c0,0,5.829-126.61-4.404-180.611L67.263,239.006z"/>
				<path style="opacity:0.7;fill:#00B8A9;" d="M83.398,265.884c0,0-0.05,13.181,3.656,17.769c3.706,4.588,10.4,38.9,10.4,38.9
					l-3.943-38.458C93.51,284.096,85.919,277.586,83.398,265.884z"/>
				<path style="fill:#F6416C;" d="M90.547,408.841l1.893-23.651c-6.258,3.206-13.069,0.572-16.041-0.92
					c0.341,9.52,0.495,17.972,0.361,24.383L90.547,408.841z"/>
				<path style="fill:#F6416C;" d="M103.926,389.615c0.484,4.999,0.943,9.738,1.355,13.991l5.89,1.287l10.724-3.577
					c0.118-3.723,0.24-7.925,0.356-12.51C114.943,391.233,107.466,390.304,103.926,389.615z"/>
				<path style="fill:#F6416C;" d="M76.692,411.118c0,0-3.556,9.189-2.626,17.656c0,0,19.443,2.824,34.539-7.598
					c1.021-0.705,0.687-2.298-0.525-2.566c-4.217-0.935-11.922-2.941-17.821-6.164L76.692,411.118z"/>
				<path style="fill:#FFB5AD;" d="M90.258,412.446l1.866-23.315c-5.283,4.948-15.565,0-15.565,0l0,0
					c0.262,8.753,0.337,16.376,0.133,21.987c0,0-0.808,2.102-1.553,5.206c2.653,0.231,9.026,1.105,12.773,4.33
					c0,0,4.375,0.079,6.096-1.99c0,0,0.121-1.927,1.095-3.962C93.429,414.029,91.783,413.279,90.258,412.446z"/>
				<path style="fill:#F6416C;" d="M93.308,154.186c3.514,0.79,6.984,1.777,10.388,2.954c6.115,2.115,11.313,6.279,14.717,11.782
					c6.369,10.298,12.799,20.677,19.127,30.921c9.837-3.788,19.15-7.504,28.987-11.292c-0.626-3.824-0.266-7.412,0.833-11.128
					c0.141-0.475,0.31-0.97,0.679-1.3c0.37-0.33,1.002-0.418,1.341-0.056c0.191,0.204,0.248,0.497,0.297,0.773
					c0.297,1.686,0.594,3.371,0.891,5.057c3.788-4.975,8.981-9.113,14.828-11.329c0.484-0.183,1.081-0.338,1.474-0.002
					c0.605,0.517,0.073,1.487-0.467,2.071c-2.085,2.258-4.17,4.516-6.255,6.773c3.001,3.121,5.735,7.021,6.462,11.289
					c0.041,0.239-1.03,1.124-1.213,1.299c-0.469,0.45-0.966,0.871-1.486,1.26c-1.015,0.761-2.118,1.402-3.281,1.908
					c-1.475,0.641-3.048,1.097-4.659,1.201c-1.397,0.09-3.344-0.002-4.573-0.763c-11.443,7.692-21.63,15.233-33.023,23.036
					c-2.69,1.842-6.788,1.46-9.09-0.849c-4.812-4.827-8.705-8.573-11.6-11.714c-2.424,10.568-3.02,22.186-0.868,32.813
					c-15.142,8.041-34.483,8.29-49.554,0.116c3.332-8.259,3.069-17.608,1.879-26.434s-3.617-17.436-5.222-26.197
					c-1.463-7.989-2.228-16.267-0.732-24.221c0.282-1.5,1.106-2.863,2.35-3.746C73.302,152.902,83.935,152.079,93.308,154.186z"/>
				<path style="opacity:0.5;fill:#D6395E;" d="M117.685,206.077l-7.936-8.186c0,0,2.716,8.725,2.011,14.597
					c-0.706,5.872,0.584,20.638,5.057,26.402C114.664,228.262,115.261,216.645,117.685,206.077z"/>
				<path style="fill:#FFB5AD;" d="M109.371,139.198c0.407,2.342,0.805,4.811-0.003,7.048c-0.982,2.721-3.682,4.601-6.534,5.088
					c-2.852,0.487-5.807-0.266-8.382-1.584c-6.291-3.222-10.596-10.008-10.829-17.073c-0.233-7.064,3.614-14.12,9.679-17.75
					c1.939-1.161,4.169-2.002,6.42-1.802c5.04,0.447,6.378,4.98,6.733,9.158C106.934,127.914,108.402,133.627,109.371,139.198z"/>
				<path style="opacity:0.7;fill:#FFB5AD;" d="M106.548,123.254l-2.41-3.718c0,0-3.76-0.971-5.525-0.353
					c-1.765,0.618-7.765,2.559-9.706,4.071c-1.649,1.284-3.679,5.027-5.281,8.591c-0.003,0.277-0.011,0.555-0.002,0.833
					c0.233,7.064,4.538,13.851,10.829,17.073c2.575,1.319,5.53,2.071,8.382,1.584c2.171-0.37,4.248-1.552,5.553-3.294
					c-0.089,0.049-2.281,1.205-6.774-0.005c-4.588-1.235-6.177-12-1.765-15.747C104.26,128.542,106.548,123.254,106.548,123.254z"/>
				<path style="fill:#4E342E;" d="M102.348,165.83c-5.661-11.691-6.795-19.517-7.629-32.479c4.407-2.938,9.009-6.008,12.018-10.367
					c3.01-4.359,4.201-10.401,1.518-14.968c-2.643-4.499-8.502-6.432-13.633-5.482c-5.131,0.95-9.542,4.309-12.913,8.292
					c-3.64-0.111-7.451,1.6-9.771,4.408c-2.319,2.808-3.644,6.301-4.642,9.804c-3.527,12.385-3.368,25.796,0.452,38.094
					C77.915,170.547,90.043,168.458,102.348,165.83z"/>
				<path style="fill:#4E342E;" d="M103.193,125.801c-1.748-0.704-3.219-2.165-5.093-2.368c-2.209-0.239-4.598,1.325-6.538,0.242
					c-1.196-0.667-1.716-2.118-2.752-3.014c-3.064-2.651-8.669,0.689-11.588-2.121c-0.568-0.547-0.949-1.275-1.565-1.767
					c-1.376-1.099-3.276-0.648-4.938,0.156c-0.905,1.405-1.631,2.923-2.233,4.497c2.276-0.36,4.665-0.034,6.721,1.012
					c0.986,0.502,1.914,1.16,2.99,1.416c2.124,0.506,4.361-0.651,6.506-0.243c3.621,0.69,5.675,5.508,9.36,5.439
					c1.515-0.028,2.901-0.932,4.413-1.013c0.981-0.052,1.917,0.244,2.844,0.605c0.988-0.802,1.935-1.646,2.818-2.545
					C103.816,126.023,103.5,125.924,103.193,125.801z"/>
				<g>
					<path style="fill:#00453F;" d="M98.804,335.72c-0.564-4.289-1.094-8.582-1.6-12.878l-1.475-12.89l-1.379-12.9
						c-0.478-4.298-0.862-8.606-1.296-12.909l0.154,0.298c-1.512-1.414-2.812-2.957-4.022-4.591
						c-1.187-1.646-2.229-3.393-3.126-5.208c-0.886-1.82-1.633-3.712-2.134-5.671c-0.517-1.952-0.823-3.957-0.895-5.964
						c0.244,1.993,0.641,3.96,1.265,5.855c0.623,1.894,1.398,3.733,2.335,5.487c0.941,1.751,2.028,3.421,3.235,4.995
						c1.192,1.576,2.512,3.097,3.947,4.408l0.136,0.124l0.018,0.174c0.448,4.301,0.946,8.597,1.351,12.903l1.268,12.912
						l1.172,12.922C98.133,327.094,98.486,331.405,98.804,335.72z"/>
				</g>
				<path style="fill:#F6416C;" d="M121.221,419.5c0,0,8.101,5.606,20.407,6.815c1.939,0.19,2.662,2.626,1.189,3.902
					c-5.369,4.65-17.343,11.669-38.537,8.279c0,0-0.704-9.036,2.8-16.498l9.621-2.763L121.221,419.5z"/>
				<path style="fill:#FFB5AD;" d="M121.221,419.5c0,0,0.449-9.77,0.88-25.026c-9.424,2.761-17.704,0-17.704,0
					c1.326,13.691,2.394,24.677,2.683,27.525c-0.651,1.386-1.155,2.826-1.547,4.253c0.007-0.002,8.535-2.395,14.556,3.062
					c0,0,4.487,0.608,7.373-1.084c0,0,0.223-2.27,1.437-4.922C124.049,421.456,121.221,419.5,121.221,419.5z"/>
				<path style="fill:#FFB5AD;" d="M186.869,170.565c-0.393-0.336-0.991-0.181-1.474,0.002c-5.847,2.216-11.04,6.355-14.828,11.329
					c-0.297-1.685-0.594-3.371-0.891-5.056c-0.049-0.276-0.105-0.568-0.297-0.773c-0.339-0.362-0.971-0.275-1.341,0.056
					c-0.37,0.33-0.539,0.825-0.679,1.3c-1.099,3.716-1.458,7.304-0.833,11.128c-9.837,3.788-19.15,7.504-28.987,11.292
					c-1.633-2.643-3.273-5.296-4.917-7.954c-2.02,11.059-12.434,16.811-12.435,16.811c2.685,2.745,5.972,5.941,9.825,9.82
					c2.178,2.193,5.908,1.801,8.457,0.054c11.355-7.78,21.517-15.3,32.929-22.971c1.229,0.761,3.176,0.852,4.573,0.763
					c1.611-0.103,3.184-0.559,4.659-1.201c1.163-0.505,2.267-1.147,3.281-1.908c0.52-0.39,1.016-0.811,1.486-1.26
					c0.183-0.175,1.253-1.061,1.213-1.299c-0.727-4.268-3.46-8.168-6.462-11.289c2.085-2.258,4.17-4.516,6.255-6.773
					C186.942,172.051,187.474,171.081,186.869,170.565z"/>
				<g>
					<path style="fill:#6E1D30;" d="M106.916,194.968c2.834,2.358,5.45,4.927,8.013,7.548c2.541,2.642,5.028,5.336,7.295,8.243
						c-2.835-2.357-5.451-4.926-8.013-7.548C111.672,200.568,109.185,197.874,106.916,194.968z"/>
				</g>
				<path style="opacity:0.5;fill:#D6395E;" d="M95.249,214.539c-0.431-1.009-1.634-1.398-2.701-1.653
					c-6.037-1.441-12.224-2.254-18.428-2.429c-1.769-0.05-3.537-0.031-5.303-0.033c0.112,0.716,0.229,1.43,0.326,2.148
					c0.301,2.234,0.542,4.501,0.681,6.776c7.163,0.551,14.394,0.223,21.474-1c1.044-0.18,2.125-0.397,2.975-1.029
					C95.122,216.686,95.665,215.513,95.249,214.539z"/>
				<path style="opacity:0.5;fill:#D6395E;" d="M97.176,426.652c-5.911,0.669-8.449-1.119-12.055-4.293
					c-3.598-3.167-10.471-3.528-10.514-3.53c-0.558,3.001-0.917,6.528-0.542,9.946C74.066,428.775,85.211,430.389,97.176,426.652z"
					/>
				<path style="opacity:0.5;fill:#D6395E;" d="M131.662,436.644c-8.238,0.783-8.344-1.756-14.432-5.285
					c-6.077-3.523-12.359-2.053-12.382-2.047c-0.889,5.013-0.568,9.184-0.568,9.184
					C116.144,440.394,125.118,439.029,131.662,436.644z"/>
			</g>
		</g>
	</g>
</g>
</svg>
